<?xml version="1.0" encoding="UTF-8"?>
<svg id="Layer_1" xmlns="http://www.w3.org/2000/svg" version="1.1" viewBox="0 0 1039 938">
  <!-- Generator: Adobe Illustrator 29.3.1, SVG Export Plug-In . SVG Version: 2.1.0 Build 151)  -->
  <defs>
    <style>
      .st0 {
        fill: #a0d9ed;
      }

      .st0, .st1, .st2, .st3, .st4, .st5, .st6, .st7, .st8, .st9, .st10, .st11, .st12, .st13, .st14, .st15, .st16, .st17, .st18, .st19, .st20, .st21, .st22, .st23, .st24, .st25, .st26 {
        stroke: #390000;
        stroke-linejoin: round;
      }

      .st0, .st1, .st2, .st3, .st5, .st8, .st9, .st10, .st11, .st12, .st13, .st15, .st17, .st18, .st19, .st20, .st21, .st24, .st25, .st26 {
        stroke-width: 5px;
      }

      .st1 {
        fill: #fd0;
      }

      .st2 {
        fill: #131313;
      }

      .st27 {
        fill: #cfb298;
      }

      .st3 {
        fill: #b8005f;
      }

      .st4 {
        fill: #e6e6e6;
      }

      .st5 {
        fill: #ffc3e5;
      }

      .st6, .st28 {
        fill: #fff;
      }

      .st6, .st22, .st23 {
        stroke-width: 3px;
      }

      .st7 {
        fill: #b47d4f;
      }

      .st8 {
        fill: #dbb2ff;
      }

      .st9 {
        fill: #723e00;
      }

      .st29, .st23, .st24 {
        fill: #ff7cae;
      }

      .st10, .st30, .st16, .st31 {
        fill: none;
      }

      .st11 {
        fill: #6c3506;
      }

      .st12, .st32 {
        fill: #e02229;
      }

      .st13 {
        fill: #491b02;
      }

      .st30, .st31 {
        stroke: #000;
        stroke-miterlimit: 10;
      }

      .st15 {
        fill: #0072bf;
      }

      .st16, .st31 {
        stroke-width: 2px;
      }

      .st17 {
        fill: #ff9300;
      }

      .st18 {
        fill: #74c4ed;
      }

      .st19 {
        fill: #292d95;
      }

      .st20 {
        fill: #caf0af;
      }

      .st21, .st22 {
        fill: #99daff;
      }

      .st33 {
        fill: #ffd0f1;
      }

      .st25 {
        fill: #91aaff;
      }

      .st26 {
        fill: #3286ff;
      }
    </style>
  </defs>
  <g id="background">
    <rect class="st20" x="2.5" y="2.5" width="1034" height="933"/>
  </g>
  <g id="bowlhover">
    <path class="st9" d="M295.8,706.4c17.8-9.3-12.7-13.6-12.7-13.6l-7-6.6c4.7-6.6-17.3,1.4-17.3,1.4,21.1-15.9-13.1-10.8-13.1-10.8.9-17.8-17.8-11.2-17.8-11.2,0,0,10.3,5.2,0-9.8-10.3-15-13.5,0-13.5,0,0,0-22.5,32.8-15,18.3,7.5-14.5-3.3-9.8-3.3-9.8l-12.7-3.3-6.6,7.1s.9,3.6-9.8.3-3.3,17.3-3.3,17.3c-18.3,1.4-12.7,10.3-12.7,10.3l-4.2,7.5c-9.8-.9-12.2,6.6-12.2,6.6,0,0,73.5,42.2,161.2-3.8h0Z"/>
    <path class="st8" d="M101.8,769.7s-5.6-40.3,26.2-59.5c0,0,80.6,42.2,174.3-3.8,0,0,24.8,8.4,24.8,53.4,0,0-87.2,71.7-225.4,9.8Z"/>
    <path class="st33" d="M127.8,718.5s79.2,46.4,173.6-2.3c-.3-.2,12.9,8.2,11.8,20.1,0,0-82.1,49.5-192.4-6.1,0,0-1.9-6.9,7-11.7h0Z"/>
  </g>
  <g id="curlerhover">
    <g id="Curlere-2">
      <path class="st21" d="M623,232.5s-21.6-23.3,0-48.4,55.7,8.2,55.7,8.2c0,0,19.9,22.5-8.2,45.3-28.1,22.9-47.5-5.2-47.5-5.2h0Z"/>
      <path class="st21" d="M486.3,284.8s9,20.6,45.4,17.5,33.8-37.7,33.8-37.7c0,0-2.3-35.5-43.8-34.2-41.5,1.3-37.7,50.9-37.7,50.9,2.5,4.2,4,7.8,2.3,3.5h0Z"/>
      <path class="st21" d="M565.5,255.8s2.6-29.7,34.3-28.6,31.7,32.8,31.7,32.8c0,0-2.7,30.5-30.5,29.4-27.8-1.2-35.5-18.9-35.5-18.9v-14.7h0Z"/>
      <path class="st21" d="M545.6,233s-24.6-32,1.7-49.4c26.2-17.4,42.2,2.3,42.2,2.3,0,0,19.6,15.4,2.6,41.3s-46.5,5.8-46.5,5.8h0Z"/>
      <path class="st21" d="M647.3,250.2s-20.7,23.3,0,41,47,0,47,0c0,0,21.6-21.6,0-41s-47,0-47,0Z"/>
      <path class="st22" d="M539,244.7s-29.7-13-41.2,13.6c0,0-5.7,19.3,14.9,27.3,20.6,8,29.8-11.8,29.8-11.8,0,0,1.7-25-22.8-15.5,0,0-13,6.8,0,13.9"/>
      <path class="st22" d="M576.2,192.9s-24.4-9.7-26.6,17.8c0,0-.2,20.7,20.4,12.6,0,0,12.4-3.3,8.1-15.1-4.3-11.8-13.7.2-13.7.2"/>
      <path class="st22" d="M611,244.7s-24.8-13.3-31.9,11.4c-7.2,24.7,23.5,21.4,23.5,21.4,0,0,19.5-2.7,13-16.3s-22-.3-22-.3"/>
      <path class="st22" d="M667.4,212.4s5.2-25.5-25.5-23.6c0,0-22,4.9-10.5,30.1,0,0,9.9,16.5,19.7,6.2,9.8-10.3-4.1-19.3-4.1-19.3,0,0-5.7-3.8-6.5,2.3"/>
      <path class="st22" d="M656.3,285.6s24.7,13.7,33.4-6.4c8.7-20.1-12.2-25.2-12.2-25.2,0,0-20.9-6.8-24.7,12.5,0,0,0,16.3,16.8,11.3,16.8-5,2.7-13.2,2.7-13.2"/>
    </g>
  </g>
  <g id="tablehover">
    <g id="table_edges-2">
      <path class="st0" d="M163.8,375h-26.1l-49.9,56.1,253.9-5.8-35.1-50.5h-35.1c3.1.1-.7,9.7-.7,9.7,0,0,89.5,6.5,1,23.5-78.2,15-98.9-1.8-101.7,2.2,0,0-94.7-13.7,1-22s0,0,0,0l-7.3-13.2"/>
    </g>
    <polygon class="st26" points="87.8 431.1 87.8 456.2 341.7 452.6 341.7 425.3 87.8 431.1"/>
    <rect class="st25" x="97.2" y="456.2" width="21.1" height="167"/>
    <polygon class="st25" points="332.5 452.8 335.3 623.2 311.7 623.2 311.7 452.8 332.5 452.8"/>
    <polygon class="st25" points="150.4 455.2 150.8 580.3 175 580.3 174.6 455.2 150.4 455.2"/>
    <polygon class="st25" points="278.2 453.7 281.3 580.3 256.7 580.3 256 453.7 278.2 453.7"/>
    <path class="st10" d="M158.3,339.9s67.1-26.8,116.4,0"/>
    <path class="st1" d="M171.1,388.2c-.9-.2-94.5,7.2-1,22,0,0,73.8,7.7,119.9-6.6,0,0,59.5-14.7-22.5-17.9"/>
    <path class="st10" d="M276.1,345.6s18.1-24.7,29.5-1.4c0,0,3.7,17-14.1,22.9l-15.4,1.2"/>
    <path class="st16" d="M193.6,313.4s-33.6-34.2,0-89.2c33.6-55,7.2-77.7,7.2-77.7,0,0-22.7-24.4-7.9-65.2s27.3-16.5,27.3-16.5c0,0,4.3,13.5-7.6,15.1,0,0-11.8-1.4-6.9-11.9,0,0,7.9-7.6,7.9,3.6,0,0,.3,5.4-4.3,2.3"/>
    <path class="st30" d="M176.5,395.4c-1.7,0-42.9,1.1,0,6.4,28.3,3.5,79.5,1.1,79.5.4,9.3-.5,46.3-6.1,6.6-7.9"/>
    <path class="st31" d="M229,319.7s20.2-20.5,2-61.9c0,0-20.9-36.9-2-72.2,0,0,30.8-42.3-.2-74.1,0,0-6.9-7.8-12.5,0s4.6,12.6,4.6,12.6c0,0,8.4.7,5.4-8.5,0,0-5.9-5.4-7.3,1.8,0,0,1.4,6.5,4.3,1.1"/>
    <path class="st31" d="M209.7,278.4s-13.4-3.6-5.1-15.8c0,0,9.7-7.6,11.8,5.4,0,0,.7,8.3-4.2,6,0,0-9.2-.9-4.9-8.5,0,0,6.5-2.2,4.5,3.9"/>
    <path class="st31" d="M230.5,217.7s-5.4-14.2.8-17.6c0,0,8.2-5.9,9.8,3.1,0,0,.9,9-6.4,7.3,0,0-5.5-4.7,0-7.3,0,0,4.7-1.7,2.3,2.8"/>
    <path class="st31" d="M197,191.4s13.2-24.9,2.9-29.1-12.9,7.1-12.9,7.1c0,0,0,12.9,10.5,5.1,0,0,4.2-8.2-3.8-8,0,0-4.7,2.2-.4,5.1"/>
    <path class="st30" d="M210.1,319.7s10.3-18.5,3-30.8"/>
    <path class="st5" d="M158.3,339.9s-5.9,41.9,25.8,58.4h67.9s31.4-10.5,22.7-58.4c0,0-65.1,29.4-116.4,0h0Z"/>
    <path class="st29" d="M215.8,368.3c0-4.4-21.5-13.1-9.2,5.2l9.2,12.3h0c7.7,10,24.1-39.6,0-17.5Z"/>
    <path class="st4" d="M163.5,340.1s56.9-24.4,105.5-.2c0,0-59.5,25.2-105.5.2Z"/>
  </g>
  <g id="pug">
    <g id="Streger">
      <line class="st10" x1="526" y1="461" x2="516.8" y2="463.5"/>
      <path class="st10" d="M557.3,461c-.6,15.9-6.8,23.9-6.8,23.9-19.7,20.4-28.7,1.2-28.7,1.2"/>
      <g id="nose">
        <path class="st2" d="M538.3,389c-11.6-8,34.1-23.5,45.9-3.9,8.3,13.8-29.5,24.4-29.5,24.4,0,0-14.7-6.9-16.1-18.9"/>
        <path class="st14" d="M564.8,407.9s-3.2-27.8,11-5.3"/>
        <path class="st14" d="M544.4,398.3s9.8-20.8,4.4,6"/>
      </g>
      <path class="st11" d="M545.8,489.3s65.4,20.6,84.2-30c18.8-50.5-44-68.8-44-68.8,0,0-.2,11.9-30.1,20.2l-9.8,39.8,12.5,11.6s-.8,18.5-12.9,27.1h0Z"/>
      <g id="body_outline">
        <path class="st10" d="M729.1,397.5s40.5,31,12.1,63.6"/>
        <path class="st10" d="M627.9,493.5s31.3,6,57.1-10.9,56.2-21.6,56.2-21.6c22-10.7,25.9,8.4,25.9,8.4,15,54.7-19.9,48.9-19.9,48.9-5.1-2.2-68.4,2.6-81.5,18.9"/>
        <path class="st10" d="M796.9,656.2s-52.4-54.8-82.8,31.5c0,0-16.4,34,36.5,99.6,0,0-45.6-19-39,23,0,0,10.3,20.7,138.2-13.1,0,0,83.4-97.2,29.8-219-40.4-92-109.5-81.7-109.3-92"/>
        <path class="st10" d="M641.5,769.5s39.7,10.3,95.1,0"/>
        <path class="st10" d="M543,635.5s11,92.6,58.5,154.7c0,0,17.1,15.8,35.9,0,18.9-15.8-32.9-143.6-32.9-143.6"/>
        <path class="st10" d="M414.6,787.2h132s23.6,3,21.2-22.6"/>
        <path class="st10" d="M583.2,764.6s-129.3-5.7-154.1-76.9c0,0,5.3,47.6,18.3,56.9,0,0-16.3-5.2-25.5,4.7"/>
        <path class="st10" d="M452.2,380s-18,20.8-9.8,39.7c3.7,8.6,12.8,16.8,31.3,22.4"/>
        <path class="st10" d="M420.1,611.7c-11.4,34.1,9,71.6,9,76-11,119.6-23.6,119.6-23.6,119.6-37.4,11-46-11.4-46-11.4-6.2-231.2,55.2-313.1,55.2-313.1"/>
        <path class="st10" d="M477.4,518.3s-69.4-2.9-70.7-67.6c0,0-1.4-43.7,38.5-25.8"/>
        <line class="st10" x1="625.8" y1="277.4" x2="638.2" y2="277.4"/>
      </g>
      <path class="st10" d="M534,494.4c-.3-25.7,12-43.8,12-43.8l23,21.3"/>
      <path class="st11" d="M565.6,377.4c1,.5-10.7,14.9-9.5,32.6l-10,40.6-20.1,10.4c-8.6,11.5-4.2,25.2-4.2,25.2-22.5-9.3-23.6-15-33.3-34.5s18.2-43.9,18.2-43.9c0,0,14.1-16.8,30.5-18-.7-4,10.3,22.2,18.8,20.9,7.5-1.1,0,0,0,0"/>
    </g>
    <g id="Curlers">
      <path class="st24" d="M623.2,232.1s-21.6-23.3,0-48.4c21.6-25,55.7,8.2,55.7,8.2,0,0,19.9,22.5-8.2,45.3s-47.5-5.2-47.5-5.2h0Z"/>
      <path class="st24" d="M484.2,280.9s-3.8-49.6,37.7-50.9c41.5-1.3,43.8,34.2,43.8,34.2,0,0,2.6,34.6-33.8,37.7s-45.4-17.5-45.4-17.5"/>
      <path class="st24" d="M565.6,255.4s2.6-29.7,34.3-28.6,31.7,32.8,31.7,32.8c0,0-2.7,30.5-30.5,29.4-27.8-1.2-35.5-18.9-35.5-18.9v-14.7h0Z"/>
      <path class="st24" d="M545.8,232.6s-24.6-32,1.7-49.4,42.2,2.3,42.2,2.3c0,0,19.6,15.4,2.6,41.3s-46.5,5.8-46.5,5.8h0Z"/>
      <path class="st24" d="M647.4,249.8s-20.7,23.3,0,41c20.7,17.7,47,0,47,0,0,0,21.6-21.6,0-41s-47,0-47,0Z"/>
      <path class="st23" d="M539.2,244.4s-29.7-13-41.2,13.6c0,0-5.7,19.3,14.9,27.3,20.6,8,29.8-11.8,29.8-11.8,0,0,1.7-25-22.8-15.5,0,0-13,6.8,0,13.9"/>
      <path class="st23" d="M576.4,192.5s-24.4-9.7-26.6,17.8c0,0-.2,20.7,20.4,12.6,0,0,12.4-3.3,8.1-15.1-4.3-11.8-13.7.2-13.7.2"/>
      <path class="st23" d="M611.1,244.4s-24.8-13.3-31.9,11.4c-7.2,24.7,23.5,21.4,23.5,21.4,0,0,19.5-2.7,13-16.3s-22-.3-22-.3"/>
      <path class="st23" d="M667.6,212.1s5.2-25.5-25.5-23.6c0,0-22,4.9-10.5,30.1,0,0,9.9,16.5,19.7,6.2,9.8-10.3-4.1-19.3-4.1-19.3,0,0-5.7-3.8-6.5,2.3"/>
      <path class="st23" d="M656.4,285.2s24.7,13.7,33.4-6.4c8.7-20.1-12.2-25.2-12.2-25.2,0,0-20.9-6.8-24.7,12.5,0,0,0,16.3,16.8,11.3s2.7-13.2,2.7-13.2"/>
    </g>
    <g id="eyespots">
      <path class="st7" d="M631.7,424c69.8,17.7,52-58.5,52-58.5-9.5-51.5-56.8-34.6-56.8-34.6-49.3,30.4-18.9,69.3-18.9,69.3l23.8,23.8h0Z"/>
      <path class="st7" d="M471.8,342.5s31.8-30.1,55.8-26.6c24.1,3.4,34.4,26.6,34.4,26.6-.1.2,7.9,16.3-3.7,31.1,0,0-24.9,5.9-22.3,13.6-9.7,0-25.5,12.4-32.8,21.5-13.6,17-42-14.3-41-28.5,0,0-9.2-23.6,9.6-37.7h0Z"/>
    </g>
    <g id="eyes">
      <path class="st6" d="M490.3,325.5c2.3-1.9,5-3.2,8-3.8,11.9-2.6,43.6-6.6,41,27.1-2.9,38.5-50.6,36.9-55.3,28.6,0,0-2.5-2.5-4.2-5.1-4.9-7.7-15.2-26.1,10.5-46.7h0Z"/>
      <path class="st6" d="M682.9,368.2s-13.8-25.3-37.4-20.1c-22.8,5-28.3,22.8-28.5,24,0,0-9.6,27.2,15.3,35.9,25.6,8.8,46.3-12.9,37.8-5.7,0-.1,17.8-9.8,12.7-34.1h0Z"/>
    </g>
    <g id="ears">
      <path class="st11" d="M484.2,280.9c-67.2,2-68.2,69.3-68.2,69.3-15.2,28.5-58.5,70.5,11.6,33.7l31.8-5.6s-4.9-21,12.6-35.8c0,0-5-25.2,16.8-44.5,2.4-2.1,2.9-5.6,1.2-8.3l-5.6-8.8h0Z"/>
      <path class="st11" d="M700.2,285.7c-5.8,3.6-6.2,9.4-6.4,16.2-.8,23.4.7,77,28.7,92.2,36.2,19.6,46.5,6.8,46.5,6.8,0,0,10.4-9.7-13.5-23.4,0,0,20.8-61.7-52.2-92.2l-3.2.5h0Z"/>
    </g>
    <g id="tail">
      <path class="st11" d="M894,700.4c7.8-49.3,62.4,2.7,62.4,2.7,0,0,29.7,33.2-5.1,66.4s-89.8,11.7-89.8,11.7c0,0,25.3-34.8,32.5-80.8h0Z"/>
      <path class="st10" d="M881.4,742.7s13,26.2,39.9,8.7c0,0,14.1-12.5,1.6-22.7,0,0-13.1-5.4-16.6,7.3,0,0,0,6.8,6.1,6.5"/>
    </g>
    <g id="pupiller">
      <path d="M678.4,362.5s-21.6-19.3-39.5,6c-17.8,25.3,13.7,33.5,13.7,33.5,0,0,20.7,3.1,27.9-13.7s-2.1-25.8-2.1-25.8Z"/>
      <path d="M494.5,326.4c-3.2-.3-20.5,11.3-18.1,27.4,2.3,15.8,27.6,12,27.6,12,0,0,20.7-5.4,23.3-26.2,2.8-21.6-31.8-14.8-32.8-13.2h0Z"/>
    </g>
    <path class="st10" d="M555.9,410.9c-14.3-7.1-17.7-21.4-17.5-21.9-25.8,5.5-31.7,18.9-31.7,18.9"/>
    <g id="eye_shine">
      <path class="st28" d="M501.5,327.8s-4.1-.2-3.9,4.4c.1-.1-.2,3.9,3.9,3.8,0,0,4.5.6,4.4-4,.1.4.2-4.5-4.4-4.1Z"/>
      <path class="st28" d="M659.2,357s-4.1-.2-3.9,4.4c.1-.1-.2,3.9,3.9,3.8,0,0,4.5.6,4.4-4,.1.4.2-4.5-4.4-4.1Z"/>
    </g>
    <line class="st10" x1="511.8" y1="464.2" x2="526" y2="461"/>
    <g id="tongue_color">
      <path class="st32" d="M540.5,455.2l-14.5,7.4s-11.3,23.5,5.5,29.3c0,0-.2-17.2,9-36.7h0Z"/>
      <path class="st32" d="M546.6,454.1s-10.6,19.2-10,37.8c0,0,17.6-2.3,18.5-29.7l-8.5-8.2h0Z"/>
    </g>
    <g id="body_color_outline">
      <path class="st27" d="M566.6,275.6s-12.7,47.3-73.8,19.6c0,0-.8,4-4.7,5.7,0,0-18,18-13.8,39.5l3.3-2.8s11-19.2,29.8-18.4c0,0,24-14.3,47.4,12.2,0,0,20,19.6,3.7,42.2,0,0,25.8-2.9,29.3,15.5,0,0,11.5,3.7,16.8,7.4,0,0-14-25.6,1.3-46.4,15.4-20.8,25.9-20.4,25.9-20.4,0,0,24.3-7.6,40.3,10s13.7,52.9,13.7,52.9c0,0-1.3,30.8-29.1,33.8,0,0-12,1.6-24.9-2.3,0,0,14.4,36.6-20.3,61.4,0,0-9,8.9-37.1,10,0,0-13.4-.2-28-3.5,0,0-16,12.5-26.2-4.1,0,0-16-6-22.8-15.3s-12-22.9-12-22.9c0,0-6.3-13.3,12.7-36,0,0-9.1,1.3-15.6-3.7s-11.1-9.9-11.1-9.9c0,0-10-10.5-9-19.8l-.9-1.4s-5.7,1-7.6,2.7-11.1,15.9-11.1,24.3c0,0-2.6,14.9,10.9,24.2,0,0,6.3,5.5,16.9,8.7,0,0,3.8,1,2.5,3.2s-3.8,1.1-3.8,1.1c0,0-15.8-4.4-25.5-16.4,0,0-20.3-10.1-28.9,2.5s-9.9,39.3,7.3,61c0,0,13.4,18.3,40.3,23.8,0,0,5.6,1.7,11.1,2.1,0,0,3.7-.5,3.2,2.3s-3.3,2-3.3,2c0,0-19.4-2.3-34.8-11.2-15.4-8.9-24-22.2-24-22.2,0,0-14.5,23-24.6,55.7s-16.8,69.3-16.8,69.3c0,0-14.8,62.5-13.7,184.2,0,0,14,22.7,46.4,9,0,0,6.8-7,12.9-49.8,0,0,6.3-40.3,8.2-67.4,0,0-7.6-16.4-12.1-41.6,0,0-2.3-17.7,2.2-31.9,0,0,1.1-3.2,3.2-2.2s1,3.8,1,3.8c0,0-3,8-2.3,21.7s3.5,23.2,3.5,23.2c0,0,5.2,18.4,8.4,25.4,0,0,5.6,22.2,31.4,40.7,0,0,24.6,18.6,61.6,26.5,0,0,33.1,8.6,57.6,9,0,0-16.8-28.7-27.6-66.2,0,0-7.9-25.8-12.6-56.7,0,0-.7-2.8,2.1-3.6,0,0,2-.3,2.2,2l2.2,12.4s2.3,12.9,5.2,25.4c0,0,11.2,52.6,36.7,93.8l13.3,19.3s17.9,15.9,34.7-2.2c0,0,6.6-10.6-5.8-54.1,0,0-2.7-15.7-27.2-81.4,0,0-1.3-2.5.3-4.3s4.2,4.9,4.2,4.9l10.5,28.4s17.8,52.1,20.2,67.2c0,0,2.7,10.1,3.5,20.2,0,0,40.6,10.3,90.2.2,0,0-25.3-36.2-24.2-71,0,0,10.3-38.4,30.2-52.4,0,0,22.9-21.2,56.7,8.4,0,0,1.8,1.4.8,2.9s-3.2.6-3.2.6c0,0-11.6-13.9-32.6-15.4s-34.8,24.9-34.8,24.9c0,0-19.9,28.7-10.3,53.2,0,0,4.5,28.9,35.5,66.2,0,0,2.4,1.7.8,3.7s-3.5,0-3.5,0c0,0-41.1-16.7-34.9,20,0,0,1.8,21.8,134.6-13.3,0,0,37.4-39.3,46.4-113.7s-33.3-133-33.3-133c0,0-18.9-43.5-85-57l-3.6-.4s1.2,20.2-11.9,26.2c0,0-7.7,4.4-14.7,2.2s-34.6,2.3-34.6,2.3c0,0-36.2,4.7-42.9,14.8,0,0-2.6,1.4-3.2-.6s.8-3.4.8-3.4c0,0,9.2-8.2,30.3-12.2,0,0,29.2-6.6,49.8-5.1s21.3-14.7,21.3-14.7c0,0,4.3-10.8-4.8-36,0,0-4.3-10.6-21.7-2.3,0,0-26.2,3.5-51.7,18.7,0,0-10.2,8.9-30,13.3,0,0-14.3,3.1-28.9.7,0,0-2.6,0-2.6-2.8,0,0,.6-2,3.7-1.2,0,0,11.7,1.3,19.9-.2,0,0,14.9-.5,30.5-10s21.2-11.5,21.2-11.5c0,0,21-9,36.7-11,0,0,18.5-16.5,3.7-41.6,0,0-3.7-10.5-16.7-20.1,0,0-21.8-2.1-31.8-44.9,0,0-5.7-30.2-3.4-58.1,0,0-16.8,9-30,5.3,0,0-17-1.8-24.7-20.5h-11.3s-7.5,13.4-26.7,11.5c0,0-19.8.2-32.6-15.2h0Z"/>
      <path class="st27" d="M417.5,785.2h133.7s17,.6,14.3-20.6c0,0-37-2.2-78.3-19.3s-54.2-43.8-54.2-43.8c0,0,4.5,30,14.5,40.5,0,0,3.1,1.6,1.6,3.8s-3.2.7-3.2.7c0,0-13.3-4.2-22.2,4,0,0-2.3,17.7-6.2,34.7h0Z"/>
    </g>
  </g>
  <g id="table">
    <g id="table_edges">
      <path class="st18" d="M163.8,375.4h-26.1l-49.9,56.1,253.9-5.8-35.1-50.5h-35.1c3.1.1-.7,9.7-.7,9.7,0,0,89.5,6.5,1,23.5-78.2,15-98.9-1.8-101.7,2.2,0,0-94.7-13.7,1-22s0,0,0,0l-7.3-13.2"/>
    </g>
    <polygon class="st19" points="87.8 431.5 87.8 456.6 341.7 453 341.7 425.7 87.8 431.5"/>
    <rect class="st15" x="97.2" y="456.6" width="21.1" height="167"/>
    <polygon class="st15" points="332.6 453.2 335.3 623.6 311.8 623.6 311.8 453.2 332.6 453.2"/>
    <polygon class="st15" points="150.4 455.6 150.8 580.7 175 580.7 174.6 455.6 150.4 455.6"/>
    <polygon class="st15" points="278.2 454.1 281.3 580.7 256.7 580.7 256 454.1 278.2 454.1"/>
    <path class="st10" d="M158.3,340.3s67.1-26.8,116.4,0"/>
    <path class="st17" d="M171.1,388.6c-.9-.2-94.5,7.2-1,22,0,0,73.8,7.7,119.9-6.6,0,0,59.5-14.7-22.5-17.9"/>
    <path class="st10" d="M276.1,346s18.1-24.7,29.5-1.4c0,0,3.7,17-14.1,22.9l-15.4,1.2"/>
    <path class="st16" d="M193.6,313.8s-33.6-34.2,0-89.2,7.2-77.7,7.2-77.7c0,0-22.7-24.4-7.9-65.2s27.3-16.5,27.3-16.5c0,0,4.3,13.5-7.6,15.1,0,0-11.8-1.4-6.9-11.9,0,0,7.9-7.6,7.9,3.6,0,0,.3,5.4-4.3,2.3"/>
    <path class="st30" d="M176.6,395.8c-1.7,0-42.9,1.1,0,6.4,28.3,3.5,79.5,1.1,79.5.4,9.3-.5,46.3-6.1,6.6-7.9"/>
    <path class="st31" d="M229.1,320.1s20.2-20.5,2-61.9c0,0-20.9-36.9-2-72.2,0,0,30.8-42.3-.2-74.1,0,0-6.9-7.8-12.5,0s4.6,12.6,4.6,12.6c0,0,8.4.7,5.4-8.5,0,0-5.9-5.4-7.3,1.8,0,0,1.4,6.5,4.3,1.1"/>
    <path class="st31" d="M209.7,278.8s-13.4-3.6-5.1-15.8c0,0,9.7-7.6,11.8,5.4,0,0,.7,8.3-4.2,6,0,0-9.2-.9-4.9-8.5,0,0,6.5-2.2,4.5,3.9"/>
    <path class="st31" d="M230.5,218.1s-5.4-14.2.8-17.6c0,0,8.2-5.9,9.8,3.1,0,0,.9,9-6.4,7.3,0,0-5.5-4.7,0-7.3,0,0,4.7-1.7,2.3,2.8"/>
    <path class="st31" d="M197,191.8s13.2-24.9,2.9-29.1-12.9,7.1-12.9,7.1c0,0,0,12.9,10.5,5.1,0,0,4.2-8.2-3.8-8,0,0-4.7,2.2-.4,5.1"/>
    <path class="st30" d="M210.1,320.1s10.3-18.5,3-30.8"/>
    <path class="st12" d="M158.3,340.3s-5.9,41.9,25.8,58.4h67.9s31.4-10.5,22.7-58.4c0,0-65.1,29.4-116.4,0h0Z"/>
    <path class="st29" d="M215.8,368.7c0-4.4-21.5-13.1-9.2,5.2l9.2,12.3h0c7.7,10,24.1-39.6,0-17.5Z"/>
    <path class="st4" d="M163.5,340.5s56.9-24.4,105.5-.2c0,0-59.5,25.2-105.5.2Z"/>
  </g>
  <g id="bowl">
    <path class="st13" d="M296.2,706.7c17.8-9.3-12.7-13.6-12.7-13.6l-7-6.6c4.7-6.6-17.3,1.4-17.3,1.4,21.1-15.9-13.1-10.8-13.1-10.8.9-17.8-17.8-11.2-17.8-11.2,0,0,10.3,5.2,0-9.8-10.3-15-13.5,0-13.5,0,0,0-22.5,32.8-15,18.3,7.5-14.5-3.3-9.8-3.3-9.8l-12.7-3.3-6.6,7.1s.9,3.6-9.8.3-3.3,17.3-3.3,17.3c-18.3,1.4-12.7,10.3-12.7,10.3l-4.2,7.5c-9.8-.9-12.2,6.6-12.2,6.6,0,0,73.5,42.2,161.2-3.8h0Z"/>
    <path class="st3" d="M102.2,769.9s-5.6-40.3,26.2-59.5c0,0,80.6,42.2,174.3-3.8,0,0,24.8,8.4,24.8,53.4,0,0-87.2,71.7-225.4,9.8Z"/>
    <path class="st29" d="M128.2,718.7s79.2,46.4,173.6-2.3c-.3-.2,12.9,8.2,11.8,20.1,0,0-82.1,49.5-192.4-6.1,0,0-1.9-6.9,7-11.7h0Z"/>
  </g>
</svg>