<?xml version="1.0" encoding="UTF-8"?>
<svg id="Layer_1" data-name="Layer 1" xmlns="http://www.w3.org/2000/svg" width="519.4" height="525.8" viewBox="0 0 519.4 525.8">
  <g id="ghosts">
    <path d="M173.84,362.45s-6.67,2.14-8.53,1.38c-16.8-6.81,27-41.24,23.87-87.51-1.88-32.5-5.25-92.75,39.75-103.5s63.25,14.25,63.25,14.25c0,0,12.63,14.13,24.12,55.5,0,0,10.38,39.62,31.38,82.13,0,0,16.37,35-17.5,6.63,0,0-26-26.75-29.25,6.5,0,0-3.87,51.37-25.13,5.5s-33,9.25-33,9.25c0,0-7.81,32.07-17.25.5-1.24-.28-12.48-48.22-30.84-8.45-.33.72-.74,1.39-1.1,2.1-1.17,2.34-3.22,7.96-11.25,12.27l-8.53,3.46Z" style="fill: #fffae2; stroke: #000; stroke-miterlimit: 10; stroke-width: 3px;"/>
    <g id="ansigt">
      <path d="M259.31,233.94c.75,4.62-1.75,9.25-8.63,10.5s-10.75-2.75-11.5-7.38,2.87-4.13,9.87-5.37,9.5-2.38,10.38,2.25h-.13Z"/>
      <circle cx="227.18" cy="225.69" r="4.25" style="stroke: #000; stroke-miterlimit: 10; stroke-width: 3px;"/>
      <circle cx="266.81" cy="218.69" r="4.25" style="stroke: #000; stroke-miterlimit: 10; stroke-width: 3px;"/>
      <path d="M251.81,250.07l-1.13-5.63,1.13,5.63Z" style="stroke: #000; stroke-miterlimit: 10; stroke-width: 3px;"/>
      <polyline points="248.43 253.32 251.81 250.07 256.56 251.94" style="fill: none; stroke: #000; stroke-miterlimit: 10; stroke-width: 3px;"/>
    </g>
    <g id="ears">
      <circle cx="185.18" cy="187.57" r="17.5"/>
      <circle cx="288.56" cy="162.82" r="17.5"/>
    </g>
  </g>
  <g id="pets">
    <path d="M141.18,447.44c-2.87-2.63-6.87-9.12-8.75-11.13-1.13-1.13-2.87-1.25-4.13-.13-7,6-7.88,21.62-10.12,30.37-.62,2.5-19.25.38-20.63-1.75-8.63-13.12,7.75-33,17.62-45.63.13-.13.25-.38.38-.5,12-14.62,24.5-40.13,43.62-33.25,12,4.37,32.62,18,30.63,29.88-1.88,10.87-4.75,16.63-16,26.75,0,0-11.5,8.63-15.25,9.87-6.75,2.25-11.25.88-17.25-4.37l-.12-.13ZM155.43,435.19c3.87-.88,5.12-2.63,8.75-6.75s4.88-9,3.5-15.88c-1.75-9.12-15.13-15.62-25.62-2.63-5.37,6.63-6,10-5.63,12.75.5,3.25,2.38,6.87,6.87,9.75s8.13,3.75,12,2.87l.12-.13Z" style="fill: #fffae2; stroke: #000; stroke-miterlimit: 10; stroke-width: 3px;"/>
    <path d="M329.56,404.07c18,19.75.5,13.12-19.75,19.88-29.13,6.25-7.75,55,6.5,86,2.75,16.87-24.75,19.5-29.13,4.5-15.13-111.75,13.12-79.37-32.25-71.62-14.25-36.62-1.5-23.75,36.13-24.87,21-1.88,30-22.88,38.38-13.75l.13-.13Z" style="fill: #fffae2; stroke: #000; stroke-miterlimit: 10; stroke-width: 3px;"/>
    <path d="M221.12,475.91c-28.91-12.98-26.31-5.47-27.69,7.28-2.25,20.38,28.38-5.87,38.38,6.75,2.25,2.75,0,22.25-3,23.87-17.38,5.63-40.5.5-49.62-17.75-7.75-25.25-3.12-37.63,7-63.25,14.75-37.12,63.63-15.88,61.25-4.62-10.62,38-36.5-12.37-44.63,6-17.5,39.75,25.25,15.62,26,24.87,0,0-8.08,20.42-7.38,16.63l-.32.22Z" style="fill: #fffae2; stroke: #000; stroke-miterlimit: 10; stroke-width: 3px;"/>
    <path d="M402.81,457.82c9.12-4.62,16.75-16.63,6.75-21.13-17.75-7.88-35.38,6.12-52.63.62-21.62-6.87-20.63-30-8.5-44.88,12.12-14.88,53.25-26.88,52.87,0-.25,15.62-34.5,5.63-43.37,16-3.75,5,2.75,12.75,7.38,13.12,25.5,1.63,54.75-21.38,70.12,3.12,7.5,12-1.37,31.5-12.12,39.5-24.38,18.13-55.5,30.75-64.62-17.87,14.13-11.37,14.88,15.13,27,16.63,8.25.38,11.25-2.12,17.12-5v-.12Z" style="fill: #fffae2; stroke: #000; stroke-miterlimit: 10; stroke-width: 3px;"/>
  </g>
  <g id="skinwalker">
    <path d="M100.43,343.57c-.62-10.25-8.63-22-16.75-14.62-14.25,13.12-8.37,34.87-20.25,48.63-14.88,17.12-35.75,7.13-44.63-9.87s-3.62-59.5,20.87-48.63c14.25,6.38-8.5,34-2.5,46.13,3.12,5.5,12.75,2.5,14.88-1.63,11.62-22.75,2-58.75,30.5-63.25,14-2.12,28.38,13.75,31.5,26.75,7.13,29.5,6.25,63.12-42,52.25-4.88-17.5,19.75-7.75,26-18.25,3.5-7.38,2.5-11.13,2.12-17.75l.25.25Z" style="fill: #fffae2; stroke: #000; stroke-miterlimit: 10; stroke-width: 3px;"/>
    <path d="M108.68,192.57c10.38,6-6.63,25.62-17.12,34.25-10.5,8.63-18.5,16-30.63,33.63-12.13,17.62,41.37,16.25,41.5,23.5.5,27.25-71.25,7.88-98.37-6.5-8.13-9.25,5.25-32.75,10.38-25.13,11.37,16.75,19.25,15.5,30.5,14.13-7.5-17.25-25.38-38-31.87-55.63-2.12-5.87-2.38-15.88,5.25-13.63,6.63,3.12,12,3.62,13.87,10.75,14.13,55.25,20.63,28.87,29.62,20.5,0,0,37.63-41.37,46.88-35.87h0Z" style="fill: #fffae2; stroke: #000; stroke-miterlimit: 10; stroke-width: 3px;"/>
    <path d="M26.93,164.57c-2.79-.75,9.25-13.63,3.5-19.37,33.37,3.5,103,13.63,91.5,36-13.87,21.62-48.25-4.13-77.25-11.88-5.12-1.25-12.88-2.87-17.75-4.88v.13Z" style="fill: #fffae2; stroke: #000; stroke-miterlimit: 10; stroke-width: 3px;"/>
    <path d="M185.18,120.57c-29.25,10.13-53.75-12.63-78.75-25.25,12.25,24.12,49.87,71,14.25,70.87-3.25-.25-62.75-89.5-28.5-95.62,30.5-5.5,46.62,22.62,67.5,32.62-10.5-17.63-35.25-43.13-29.88-51.5,3-6,11.5-9.75,13.5-8.75,19.88,15.87,23.75,45.62,41.12,63.12,3.62,3.63,6.75,11.88.62,14.37l.13.13Z" style="fill: #fffae2; stroke: #000; stroke-miterlimit: 10; stroke-width: 3px;"/>
    <path d="M254.31,16.82c3.38-7.25,8.63-15,14.13-15.25,0,2.75,9.5,83.25-5.63,96.88-19.63,17.75-20.75-11.62-26.37-24.12-2.38-7-6.63-18.25-9-25.37-1,19.63,2.25,33.38-9.5,53.25-18.25,31.13-48.12-56-60.62-85.5,33.63-4.62,44.75,41,54.88,67.25,3-16.75,5.87-24.87,7.5-31.25,1.5-5.88,5.87-27.38,11.25-15.75,6.87,14.88,12.12,33.63,22.25,44.25,3.25-12,2.5-22.38,1.13-36.25-.62-7.75-2.87-21.5-.13-27.88l.12-.25Z" style="fill: #fffae2; stroke: #000; stroke-miterlimit: 10; stroke-width: 3px;"/>
    <path d="M318.68,81.07c-12.88-8.63-14.62-13.87-22.37-8-11.88,11.5-8.5,59.75-28.38,28.75,0-5.88,33-80.25,53.12-86.88,35.25-11.62,7.5,72.38,9.75,95.25,1,13.87-11.37,3-14.88-1-2.75-5,1.88-14.63,2.75-28v-.12ZM320.18,72.07c.5-12.25,14-34.25,4.75-43.38-16,27.25-22.37,28.37-20.12,33.75,4.25,1.75,11.25,7.88,15.5,9.75l-.13-.13Z" style="fill: #fffae2; stroke: #000; stroke-miterlimit: 10; stroke-width: 3px;"/>
    <path d="M383.93,33.32c9.75.88,21.75-2.38,7.62,17-14,20.25-19.37,39.13-37,57.37-5.63,5.88,60,4.25,39,46.62-6.87,5.25-35.75-15.88-41.75-19.25-6-3.38-14.13-11.13-15.25-18.75-3.75-27.88,22.62-51.63,33.37-69.75,3.38-5.25,5.87-12.75,14-13.25h0Z" style="fill: #fffae2; stroke: #000; stroke-miterlimit: 10; stroke-width: 3px;"/>
    <path d="M404.18,198.07c-15.75-20.87,11.13-83.38,13.87-88.5,9-16.25-19.75,14.63-31,8.63-32.13-19.75,38.25-39.5,71.38-32.13,4.62,1.87,6.87,5.88,6.25,10.87-10.62,5.63-25,.37-36.5,3.63,32.38,19.63,77.5,22.38,71.88,43.88-9.75,31.5-42.38-24.75-68.25-24.5-4.13,7,7.38,44.75,5.87,57.25-3,21.88-23,33.88-33.5,20.87Z" style="fill: #fffae2; stroke: #000; stroke-miterlimit: 10; stroke-width: 3px;"/>
    <path d="M455.06,241.57c11.62-27.87,1.25-27-11.5-26.63-20.5.62,9.87,27.25-1.37,38.87-2.5,2.63-22.13,3.25-24,.38-8-16.5-6.25-40,10.62-51.75,23.87-11.25,36.75-8.37,63.63-2,38.87,9.38,24.62,60.75,13.25,60-39.13-5.12,7.13-37.88-12.12-43.25-41.87-11.75-11.88,27.12-21,29.25,0,0-16.75-.75-17.5-4.88h0Z" style="fill: #fffae2; stroke: #000; stroke-miterlimit: 10; stroke-width: 3px;"/>
    <path d="M446.43,308.82c1.75-2.25,5.75-10,10.12-13.25,2.25-1.63,1.5-5.12-1.25-5.5-12.5-2.12-30-5.12-37.75-10.12-11.5-8.13-3.62-26.63,11.25-20,5.37,2.38,21.38,4.75,36.37,19.13,4.5,4.25,15.37,11.25,21.13,12.75,16.12,4.13,32.62,7.62,18.5,37.88-7.88,16.87-18.37,39.13-51.75,24.12-12.37-4.62-11.13-19.37-10-25.38-16.5,5-39.88,40.13-46,26.25-6.25-13.5-5.87-20.5,17.38-29.75,14.38-4.37,29.13-12.25,32.25-16l-.25-.13ZM453.56,334.32c1,3.25,3.01,3.41,8.62,6.5,24.16,11.96,30.75-16.25,28.38-26.37-6-18.75-15.5-15.37-20.87-9.25-10.87,14.25-17.79,21.73-16.12,29.13h0Z" style="fill: #fffae2; stroke: #000; stroke-miterlimit: 10; stroke-width: 3px;"/>
    <circle cx="13.81" cy="152.19" r="11.62" style="fill: #fffae2; stroke: #000; stroke-miterlimit: 10; stroke-width: 3px;"/>
  </g>
  <path d="M435.06,366.57c-12.12,3.75,19.25,27.25,20.25,14.13,2.12-26.37-24.25,15.62-14.13,20.25,17.5,8-19.37-34.63-20.25-14.13-.62,15.13,23.37-23.12,14.13-20.25Z"/>
  <path d="M102.81,407.57c-2-15.88-26.88,15.13-17.5,17.5,25.5,6.63-11.25-26.63-17.5-17.5-10.87,15.75,37.37-13.12,17.5-17.5-14.88-3.25,18.62,27.12,17.5,17.5Z"/>
</svg>