<?xml version="1.0" encoding="UTF-8"?>
<svg id="Layer_2" data-name="Layer 2" xmlns="http://www.w3.org/2000/svg" width="1920" height="1080" viewBox="0 0 1920 1080">
  <g id="ghosts">
    <path d="M953.73,531.2c-.36-.85,1.24-3.07,1.01-7.09-.15-2.6-.42-7.42,3.18-8.28s5.06,1.14,5.06,1.14c0,0,1.01,1.13,1.93,4.44,0,0,.83,3.17,2.51,6.57,0,0,1.31,2.8-1.4.53,0,0-2.08-2.14-2.34.52,0,0-.31,4.11-2.01.44-1.7-3.67-2.64.74-2.64.74,0,0-.51,2.27-1.38.04,0,0-.81-3.78-2.86-.3,0,0-.93,1.56-1.06,1.24Z" style="fill: none; stroke: #000; stroke-miterlimit: 10; stroke-width: .25px;"/>
    <g id="ansigt">
      <path d="M960.35,520.72c.06.37-.14.74-.69.84s-.86-.22-.92-.59.23-.33.79-.43.76-.19.83.18Z"/>
      <circle cx="957.78" cy="520.06" r=".34" style="stroke: #000; stroke-miterlimit: 10; stroke-width: .25px;"/>
      <circle cx="960.95" cy="519.5" r=".34" style="stroke: #000; stroke-miterlimit: 10; stroke-width: .25px;"/>
      <path d="M959.75,522.01l-.09-.45.09.45Z" style="stroke: #000; stroke-miterlimit: 10; stroke-width: .1px;"/>
      <polyline points="959.48 522.27 959.75 522.01 960.13 522.16" style="fill: none; stroke: #000; stroke-miterlimit: 10; stroke-width: .1px;"/>
    </g>
    <g id="ears">
      <circle cx="954.42" cy="517.01" r="1.4"/>
      <circle cx="962.69" cy="515.03" r="1.4"/>
    </g>
  </g>
  <g id="pets">
    <path d="M950.9,537.8c-.23-.21-.55-.73-.7-.89-.09-.09-.23-.1-.33-.01-.56.48-.63,1.73-.81,2.43-.05.2-1.54.03-1.65-.14-.69-1.05.62-2.64,1.41-3.65.01-.01.02-.03.03-.04.96-1.17,1.96-3.21,3.49-2.66.96.35,2.61,1.44,2.45,2.39-.15.87-.38,1.33-1.28,2.14,0,0-.92.69-1.22.79-.54.18-.9.07-1.38-.35ZM952.04,536.82c.31-.07.41-.21.7-.54s.39-.72.28-1.27c-.14-.73-1.21-1.25-2.05-.21-.43.53-.48.8-.45,1.02.04.26.19.55.55.78s.65.3.96.23Z"/>
    <path d="M965.97,534.33c1.44,1.58.04,1.05-1.58,1.59-2.33.5-.62,4.4.52,6.88.22,1.35-1.98,1.56-2.33.36-1.21-8.94,1.05-6.35-2.58-5.73-1.14-2.93-.12-1.9,2.89-1.99,1.68-.15,2.4-1.83,3.07-1.1Z"/>
    <path d="M957.33,540.06c-2.07-1.24-2.14-.42-2.25.6-.18,1.63,2.27-.47,3.07.54.18.22,0,1.78-.24,1.91-1.39.45-3.24.04-3.97-1.42-.62-2.02-.25-3.01.56-5.06,1.18-2.97,5.09-1.27,4.9-.37-.85,3.04-2.92-.99-3.57.48-1.4,3.18,2.02,1.25,2.08,1.99,0,0-.25,1.32-.59,1.33Z"/>
    <path d="M971.83,538.63c.73-.37,1.34-1.33.54-1.69-1.42-.63-2.83.49-4.21.05-1.73-.55-1.65-2.4-.68-3.59.97-1.19,4.26-2.15,4.23,0-.02,1.25-2.76.45-3.47,1.28-.3.4.22,1.02.59,1.05,2.04.13,4.38-1.71,5.61.25.6.96-.11,2.52-.97,3.16-1.95,1.45-4.44,2.46-5.17-1.43,1.13-.91,1.19,1.21,2.16,1.33.66.03.9-.17,1.37-.4Z"/>
  </g>
  <g id="skinwalker">
    <path d="M947.64,529.49c-.05-.82-.69-1.76-1.34-1.17-1.14,1.05-.67,2.79-1.62,3.89-1.19,1.37-2.86.57-3.57-.79-.71-1.36-.29-4.76,1.67-3.89,1.14.51-.68,2.72-.2,3.69.25.44,1.02.2,1.19-.13.93-1.82.16-4.7,2.44-5.06,1.12-.17,2.27,1.1,2.52,2.14.57,2.36.5,5.05-3.36,4.18-.39-1.4,1.58-.62,2.08-1.46.28-.59.2-.89.17-1.42Z"/>
    <path d="M948.3,517.41c.83.48-.53,2.05-1.37,2.74-.84.69-1.48,1.28-2.45,2.69s3.31,1.3,3.32,1.88c.04,2.18-5.7.63-7.87-.52-.65-.74.42-2.62.83-2.01.91,1.34,1.54,1.24,2.44,1.13-.6-1.38-2.03-3.04-2.55-4.45-.17-.47-.19-1.27.42-1.09.53.25.96.29,1.11.86,1.13,4.42,1.65,2.31,2.37,1.64,0,0,3.01-3.31,3.75-2.87Z"/>
    <path d="M941.76,515.17c.3-.2.74-1.09.28-1.55,2.67.28,8.24,1.09,7.32,2.88-1.11,1.73-3.86-.33-6.18-.95-.41-.1-1.03-.23-1.42-.39Z"/>
    <path d="M954.42,511.65c-2.34.81-4.3-1.01-6.3-2.02.98,1.93,3.99,5.68,1.14,5.67-.26-.02-5.02-7.16-2.28-7.65,2.44-.44,3.73,1.81,5.4,2.61-.84-1.41-2.82-3.45-2.39-4.12.24-.48.92-.78,1.08-.7,1.59,1.27,1.9,3.65,3.29,5.05.29.29.54.95.05,1.15Z"/>
    <path d="M959.95,503.35c.27-.58.69-1.2,1.13-1.22,0,.22.76,6.66-.45,7.75-1.57,1.42-1.66-.93-2.11-1.93-.19-.56-.53-1.46-.72-2.03-.08,1.57.18,2.67-.76,4.26-1.46,2.49-3.85-4.48-4.85-6.84,2.69-.37,3.58,3.28,4.39,5.38.24-1.34.47-1.99.6-2.5.12-.47.47-2.19.9-1.26.55,1.19.97,2.69,1.78,3.54.26-.96.2-1.79.09-2.9-.05-.62-.23-1.72-.01-2.23Z"/>
    <path d="M965.1,508.49c-1.03-.69-1.17-1.11-1.79-.64-.95.92-.68,4.78-2.27,2.3,0-.47,2.64-6.42,4.25-6.95,2.82-.93.6,5.79.78,7.62.08,1.11-.91.24-1.19-.08-.22-.4.15-1.17.22-2.24ZM965.22,507.77c.04-.98,1.12-2.74.38-3.47-1.28,2.18-1.79,2.27-1.61,2.7.34.14.9.63,1.24.78Z"/>
    <path d="M970.32,504.67c.78.07,1.74-.19.61,1.36-1.12,1.62-1.55,3.13-2.96,4.59-.45.47,4.8.34,3.12,3.73-.55.42-2.86-1.27-3.34-1.54-.48-.27-1.13-.89-1.22-1.5-.3-2.23,1.81-4.13,2.67-5.58.27-.42.47-1.02,1.12-1.06Z"/>
    <path d="M971.94,517.85c-1.26-1.67.89-6.67,1.11-7.08.72-1.3-1.58,1.17-2.48.69-2.57-1.58,3.06-3.16,5.71-2.57.37.15.55.47.5.87-.85.45-2,.03-2.92.29,2.59,1.57,6.2,1.79,5.75,3.51-.78,2.52-3.39-1.98-5.46-1.96-.33.56.59,3.58.47,4.58-.24,1.75-1.84,2.71-2.68,1.67Z"/>
    <path d="M976,521.34c.93-2.23.11-2.17-.91-2.14-1.64.05.79,2.18-.11,3.11-.2.21-1.77.26-1.92.03-.64-1.32-.5-3.2.85-4.14,1.91-.9,2.94-.67,5.09-.16,3.11.75,1.97,4.86,1.06,4.8-3.13-.41.57-3.03-.97-3.46-3.35-.94-.95,2.17-1.68,2.34,0,0-1.34-.06-1.4-.39Z"/>
    <path d="M975.32,526.71c.14-.18.46-.8.81-1.06.18-.13.12-.41-.1-.44-1-.17-2.4-.41-3.02-.81-.92-.65-.29-2.13.9-1.6.43.19,1.71.38,2.91,1.53.36.34,1.23.9,1.69,1.02,1.29.33,2.61.61,1.48,3.03-.63,1.35-1.47,3.13-4.14,1.93-.99-.37-.89-1.55-.8-2.03-1.32.4-3.19,3.21-3.68,2.1-.5-1.08-.47-1.64,1.39-2.38,1.15-.35,2.33-.98,2.58-1.28ZM975.89,528.75c.08.26.2.22.69.52,1.78,1.08,2.46-1.3,2.27-2.11-.48-1.5-1.24-1.23-1.67-.74-.87,1.14-1.45,1.83-1.29,2.33Z"/>
    <circle cx="941.01" cy="514.18" r=".93"/>
  </g>
  <path d="M974.41,531.33c-.97.3,1.54,2.18,1.62,1.13.17-2.11-1.94,1.25-1.13,1.62,1.4.64-1.55-2.77-1.62-1.13-.05,1.21,1.87-1.85,1.13-1.62Z"/>
  <path d="M947.83,534.61c-.16-1.27-2.15,1.21-1.4,1.4,2.04.53-.9-2.13-1.4-1.4-.87,1.26,2.99-1.05,1.4-1.4-1.19-.26,1.49,2.17,1.4,1.4Z"/>
</svg>