<?xml version="1.0" encoding="UTF-8"?>
<svg id="Layer_1" data-name="Layer 1" xmlns="http://www.w3.org/2000/svg" width="374.15" height="44.43" xmlns:xlink="http://www.w3.org/1999/xlink" viewBox="0 0 374.15 44.43">
  <defs>
    <symbol id="ghost" viewBox="0 0 9.55 10.65">
      <g>
        <path d="M.82,5.74S-.27.39,3.99.13c3.83-.23,3.77,4.57,4.3,5.68.59,1.21,1.1,3.09,1.1,3.09.32,1.28-1.5-.86-1.94-.67-.64.22-.86,1.55-1.09,2-.24.69-1.51-2.33-2.08-1.72-.64.68-.49,2.26-1.14,1.99-.48-.3-.73-3.23-2.27-.85-1.79,2.76.27-1.66-.04-3.91Z" style="fill: #fff; stroke: #000; stroke-miterlimit: 10; stroke-width: .25px;"/>
        <circle cx="3.29" cy="3.3" r=".37" style="stroke: #000; stroke-miterlimit: 10; stroke-width: .25px;"/>
        <circle cx="5.17" cy="2.9" r=".4" style="stroke: #000; stroke-miterlimit: 10; stroke-width: .25px;"/>
        <ellipse cx="4.78" cy="4.89" rx=".09" ry=".44" style="fill: #fff; stroke: #000; stroke-miterlimit: 10; stroke-width: .25px;"/>
      </g>
    </symbol>
  </defs>
  <g>
    <path d="M12.13,35.15c3.26.3,7.38-1.67,5.43-4.57-3.47-5.15-10.62-4.35-14.38-8.77-4.7-5.52-.49-11.66,5.32-13.61,5.82-1.96,19,1.77,14.33,8.99-2.71,4.2-10.32-4.35-14.47-3.05-1.87.72-1.43,3.92-.23,4.79,6.64,4.78,18.49,3.53,18.49,12.76,0,4.54-5.75,8.3-9.99,8.65-9.69.79-20.27-1.12-14.48-15.84,5.77-.69,1.47,6.63,4.48,9.1,2.17,1.48,3.4,1.35,5.5,1.56Z" style="fill: #0071bc; stroke: #fbb03b; stroke-miterlimit: 10;"/>
    <path d="M62.34,41.56c-1.62,3.48-8.35-1.37-11.41-4.45-3.05-3.08-5.62-5.43-11.61-8.76s-3.96,13.65-6.26,13.9c-8.67.95-4.61-22.46-.82-31.55,2.69-2.86,10.58.73,8.32,2.59-5.01,4.12-4.37,6.59-3.61,10.14,5.3-2.88,11.37-9.21,16.79-11.78,1.81-.86,5.01-1.2,4.5,1.28-.78,2.2-.8,3.95-3.03,4.74-17.19,6.1-8.59,7.41-5.67,10.02,0,0,14.3,10.8,12.81,13.88Z" style="fill: #0071bc; stroke: #fbb03b; stroke-miterlimit: 10;"/>
    <path d="M61.79,13.47c1.14.88,5.09,1.31,6.2-1.03,2.53,10.42,6.97,32.52-1.01,31.46-7.99-1.85-3.95-14.98-4.73-24.55-.18-1.69-.53-4.18-.46-5.88Z" style="fill: #0071bc; stroke: #fbb03b; stroke-miterlimit: 10;"/>
    <path d="M100.04,37.7c-9.87-.81-14.12-10.61-19.86-17.51.49,8.65,5.48,27.22-4.91,22.61-.9-.49-6.91-34.3,3.94-31.7,9.65,2.31,10.75,12.63,15.6,18.25-.81-6.5-4.8-17.19-2.17-18.92,1.64-1.36,4.62-1.38,5.09-.81,3.78,7.19,1.12,16.42,3.95,23.79.6,1.55.44,4.35-1.64,4.29Z" style="fill: #0071bc; stroke: #fbb03b; stroke-miterlimit: 10;"/>
    <path d="M130.82,11.72c1.27-2.21,3.17-4.54,4.95-4.45-.07.86.66,26.79-4.54,30.7-6.77,5.08-6.28-4.3-7.72-8.44-.55-2.29-1.59-6.02-2.15-8.35-.88,6.23-.22,10.69-4.51,16.7-6.71,9.41-13.77-19.23-16.91-28.98,10.84-.51,13.1,14.35,15.61,22.98,1.45-5.26,2.56-7.76,3.28-9.77.66-1.85,2.64-8.55,4.03-4.71,1.79,4.94,2.9,11.05,5.86,14.72,1.39-3.74,1.43-7.05,1.38-11.5,0-2.5-.31-6.95.74-8.9Z" style="fill: #0071bc; stroke: #fbb03b; stroke-miterlimit: 10;"/>
    <path d="M149.77,28.47c-4.69-1.59-5.69-3.05-7.58-.61-2.71,4.54,2.35,19.19-6.38,11.24-.52-1.83,3.49-27.55,9.16-31.27,9.92-6.53,8.34,21.74,10.96,28.6,1.47,4.2-3.26,1.89-4.68.94-1.25-1.32-.64-4.66-1.47-8.89ZM149.47,25.58c-.86-3.82,1.45-11.77-2.18-13.81-2.67,9.76-4.54,10.62-3.41,12.09,1.45.2,4.14,1.48,5.59,1.72Z" style="fill: #0071bc; stroke: #fbb03b; stroke-miterlimit: 10;"/>
    <path d="M157.5,10.55c2.66-1.69,5.06-4.87,5.24,2.81.41,7.87,2.7,13.71,1.79,21.79-.29,2.59,16.08-10.61,19,4.22-.73,2.67-12.17,2.93-14.36,3.26-2.19.33-5.78-.07-7.5-1.79-6.37-6.33-4.33-17.5-5.13-24.21-.17-1.98-1.02-4.39.97-6.08Z" style="fill: #0071bc; stroke: #fbb03b; stroke-miterlimit: 10;"/>
    <path d="M198.87,36.78c-8.25,1.3-21.89-15.68-22.91-17.25-3.24-4.97,1.14,7.79-2.21,10.04-10.4,6.12-5.39-16.76,1.66-25.02,1.24-1.03,2.69-1.05,4-.12.01,3.84-3.66,7.13-4.46,10.86,10.4-6.21,17.97-18.55,23.22-13.7,7.43,7.49-13.37,8.25-17.18,15.61,1.36,2.22,13.74,4.64,17.05,6.95,5.73,4.16,6.1,11.59.85,12.61Z" style="fill: #0071bc; stroke: #fbb03b; stroke-miterlimit: 10;"/>
    <path d="M220.16,26.17c-9.9-4.16-9.66-.51-9.51,4.05.23,7.29,9.69-3.48,13.83.49.91.88,1.15,7.85.11,8.55-5.85,2.82-14.22,2.2-18.37-3.79-4-8.5-2.96-13.07-.66-22.63,3.33-13.81,21.63-8.73,21.35-4.68-1.84,13.89-13.47-2.54-15.4,4.31-4.19,14.88,9.65,4.24,10.4,7.47,0,0-.27,5.96-1.75,6.23Z" style="fill: #0071bc; stroke: #fbb03b; stroke-miterlimit: 10;"/>
    <path d="M242.01,26.19c-.96-.32-4.06-.61-5.68-1.68-.82-.54-1.87.17-1.69,1.12.86,4.41,2.12,10.61,1.46,13.83-1.26,4.84-8.39,4.58-8.07-1.17.12-2.07-1.12-7.7,1.71-14.5.85-2.04,1.78-6.53,1.54-8.62-.68-5.9-1.63-11.8,10.23-10.95,6.62.48,15.3,1.11,14.6,14.12.04,4.71-5.01,6.13-7.14,6.56,3.77,4.86,18.41,8.12,14.56,11.93-3.68,3.81-6.04,4.56-12.1-1.99-3.27-4.24-7.76-8.13-9.42-8.67ZM249.55,20.56c.94-.74.61-1.17,1.06-3.68,1.65-9.09-9.31-8.15-12.36-6.09-5.47,4.39-3.15,7.12-.42,8.13,6.13,1.81,9.88,3.1,11.72,1.64Z" style="fill: #0071bc; stroke: #fbb03b; stroke-miterlimit: 10;"/>
    <path d="M287.84,25.98c-1.25-.1-3.52-.99-4.38-1.12-.5-.08-.97.26-1.07.76-.59,2.88,2.22,7.03,3.35,9.68.32.74-4.81,3.86-5.58,3.59-4.74-1.66-4.48-9.87-4.46-14.99,0-.07-.02-.14-.02-.2.18-6.06-1.63-14.97,4.55-16.94,3.88-1.24,11.79-1.8,13.59,1.6,1.65,3.13,2.05,5.15,1.17,9.9,0,0-1.25,4.44-1.93,5.47-1.27,1.9-2.69,2.41-5.23,2.27ZM289.05,20.1c.81-.96.79-1.66.9-3.43s-.52-3.25-2.2-4.72c-2.23-1.94-6.89-1.02-7.02,4.34-.07,2.75.44,3.7,1.07,4.31.74.72,1.93,1.27,3.66,1.12s2.8-.66,3.6-1.62Z" style="fill: #0071bc; stroke: #fbb03b; stroke-miterlimit: 10;"/>
    <path d="M348.02,5.81c3.99,7.56-.91,4.12-7.71,4.55-9.51-.42-6.84,16.41-4.94,27.17-.51,5.44-9.25,4.01-9.39-.97,4.37-35.84,10.48-23.53-4.17-24.8-1.44-12.49,1.44-7.47,13.21-4.79,6.67,1.13,11.13-4.65,13-1.17Z" style="fill: #0071bc; stroke: #fbb03b; stroke-miterlimit: 10;"/>
  </g>
  <circle cx="277.68" cy="4.31" r="3.73" style="fill: #0071bc;"/>
  <path d="M297.07,3.88c0,2-1.97,3.62-3.8,3.62s-3.82-1.62-3.82-3.62,2-3.62,3.82-3.62,3.8,1.62,3.8,3.62Z" style="fill: #0071bc;"/>
  <path d="M312.97,26.17c-9.9-4.16-9.66-.51-9.51,4.05.23,7.29,9.69-3.48,13.83.49.91.88,1.15,7.85.11,8.55-5.85,2.82-14.22,2.2-18.37-3.79-4-8.5-2.96-13.07-.66-22.63,3.33-13.81,21.63-8.73,21.35-4.68-1.84,13.89-13.47-2.54-15.4,4.31-4.19,14.88,9.65,4.24,10.4,7.47,0,0-.27,5.96-1.75,6.23Z" style="fill: #0071bc; stroke: #fbb03b; stroke-miterlimit: 10;"/>
  <path d="M359.16,35.57c3.26.3,7.38-1.67,5.43-4.57-3.47-5.15-10.62-4.35-14.38-8.77-4.7-5.52-.49-11.66,5.32-13.61,5.82-1.96,19,1.77,14.33,8.99-2.71,4.2-10.32-4.35-14.47-3.05-1.87.72-1.43,3.92-.23,4.79,6.64,4.78,18.49,3.53,18.49,12.76,0,4.54-5.75,8.3-9.99,8.65-9.69.79-20.27-1.12-14.48-15.84,5.77-.69,1.47,6.63,4.48,9.1,2.17,1.48,3.4,1.35,5.5,1.56Z" style="fill: #0071bc; stroke: #fbb03b; stroke-miterlimit: 10;"/>
  <use width="9.55" height="10.65" transform="translate(59.92 1.3)" xlink:href="#ghost"/>
  <path d="M285.91,16.8c0,.43-.3.82-.96.82s-.93-.43-.93-.86.33-.33.98-.33.91-.06.91.37Z"/>
  <circle cx="283.11" cy="15.54" r=".4" style="stroke: #000; stroke-miterlimit: 10; stroke-width: .25px;"/>
  <circle cx="286.83" cy="15.54" r=".4" style="stroke: #000; stroke-miterlimit: 10; stroke-width: .25px;"/>
  <path d="M284.95,18.16v-.54s0,.54,0,.54Z" style="stroke: #000; stroke-miterlimit: 10; stroke-width: .1px;"/>
  <polyline points="284.58 18.4 284.95 18.16 285.35 18.4" style="fill: none; stroke: #000; stroke-miterlimit: 10; stroke-width: .1px;"/>
</svg>