<?xml version="1.0" encoding="UTF-8"?>
<svg id="Layer_1" data-name="Layer 1" xmlns="http://www.w3.org/2000/svg" width="477.06" height="320.08" viewBox="0 0 477.06 320.08">
  <path d="M167.18,77.88s-40.39-4.3-47.01,31.62c0,0-6.2,22.57,20.24,36.2,0,0,27.35,8.01,44.94-7.39,0,0,18.58-12.77,12.62-35.44,0,0-10.26-.49-30.79-24.98Z" style="fill: #fff; stroke: #000; stroke-miterlimit: 10; stroke-width: 2px;"/>
  <path d="M339.61,69.55s22.91-16.52,42.23,4.68c0,0,17.94,26-1.51,45.21s-38.77,12.92-38.77,12.92c0,0-21.67-3.72-24.74-24.92,0,0-1-7.91,2.8-11.96,0,0,14.99-4.23,19.99-25.94Z" style="fill: #fff; stroke: #000; stroke-miterlimit: 10; stroke-width: 2px;"/>
  <circle cx="354.42" cy="99.25" r="27.3" style="stroke: #000; stroke-miterlimit: 10;"/>
  <ellipse cx="159.34" cy="112.39" rx="28.68" ry="28.16" style="stroke: #000; stroke-miterlimit: 10;"/>
  <circle cx="162.79" cy="87.91" r="7.55" style="fill: #fff;"/>
  <circle cx="355.77" cy="77.88" r="7.72" style="fill: #fff;"/>
  <g>
    <path d="M243.88,124.95s13.8-8.16,28.88,0c0,0,0,14.04-11.87,20.74,0,0-14-1.7-17.01-20.74Z" style="fill: #352900;"/>
    <path d="M243.79,124.91c8.87-5.05,20.24-5.3,29.27-.51,0,0,.33.56.33.56-.22,8.58-4.42,17.26-12,21.63,0,0-.62.12-.62.12-10.28-1.77-16.41-12.03-16.98-21.8h0ZM243.97,125c2.19,9.02,7.39,17.63,17.05,19.69,0,0-.62.12-.62.12,7.16-3.88,11.32-11.87,11.74-19.85,0,0,.33.56.33.56-8.64-4.89-19.66-4.95-28.49-.51h0Z"/>
  </g>
  <g>
    <line x1="275.24" y1="126.19" x2="318.02" y2="118.03" style="fill: #352900;"/>
    <path d="M275.22,126.09c5.29-1.24,15.95-3.63,21.26-4.77,7.08-1.6,14.42-3.33,21.62-3.3-6.78,2.62-14.13,3.77-21.32,4.87-5.35.89-16.15,2.59-21.52,3.39-.12.02-.16-.17-.04-.2h0Z"/>
  </g>
  <g>
    <line x1="274" y1="132.37" x2="380.33" y2="159.32" style="fill: #352900;"/>
    <path d="M274.03,132.27c34.53,8.53,72.47,16.39,106.32,26.95.11.03.07.22-.05.19-17.98-3.45-35.69-7.97-53.33-12.8-13.21-3.48-39.81-10.58-52.99-14.15-.12-.03-.08-.23.05-.19h0Z"/>
  </g>
  <g>
    <line x1="271.78" y1="138.31" x2="365.74" y2="190.73" style="fill: #352900;"/>
    <path d="M271.83,138.22c30.57,16.81,64.56,33.82,93.96,52.42.1.06.01.23-.1.17-16.18-7.8-31.82-16.56-47.32-25.6-11.64-6.64-35.05-20.1-46.64-26.82-.11-.06-.01-.24.1-.17h0Z"/>
  </g>
  <g>
    <line x1="241.12" y1="126.19" x2="202.3" y2="120.26" style="fill: #352900;"/>
    <path d="M241.1,126.29c-4.87-.52-14.66-1.66-19.52-2.28-6.5-.75-13.3-1.46-19.37-3.79,6.56-.31,13.16.94,19.61,2.21,4.82.87,14.51,2.7,19.3,3.66.12.02.1.22-.03.2h0Z"/>
  </g>
  <g>
    <line x1="241.12" y1="131.14" x2="159.77" y2="153.14" style="fill: #352900;"/>
    <path d="M241.14,131.23c-10.09,2.96-30.38,8.81-40.49,11.68-13.45,3.9-27.25,7.95-40.97,10.25,13.07-4.91,26.96-8.39,40.56-11.79,10.16-2.62,30.67-7.8,40.86-10.33.12-.03.18.16.05.19h0Z"/>
  </g>
  <g>
    <line x1="243.88" y1="136.08" x2="144.93" y2="196.41" style="fill: #352900;"/>
    <path d="M243.94,136.17c-31.97,19.75-66.01,42.49-98.95,60.33-.1.06-.21-.11-.1-.17,15.93-10.97,32.43-21,49.11-30.76,12.32-7.13,37.92-23,49.95-29.4h0Z"/>
  </g>
  <polyline points="249.28 187.53 261 172.6 275.24 186.57" style="fill: none; stroke: #000; stroke-linecap: round; stroke-linejoin: bevel; stroke-width: 3px;"/>
  <line x1="260.9" y1="145.7" x2="261" y2="172.6" style="fill: #352900; stroke: #000; stroke-linecap: round; stroke-linejoin: bevel; stroke-width: 3px;"/>
  <path d="M182.47,221.15s-63.97,21.87-91.74-36.37c-18.36-38.5-3.89-68.62,8.03-84.62,6.11-8.2,17.48-17.27,17.48-17.27" style="fill: none; stroke: #000; stroke-miterlimit: 10; stroke-width: 3px;"/>
  <path d="M400.17,74.01s76.49,99.48-37.2,143.38" style="fill: none; stroke: #000; stroke-miterlimit: 10; stroke-width: 3px;"/>
  <path d="M50.14,81.58s9.46,9.06,41.87,14.68c0,0,10.44-10.44-.89-19.11s-30.83-10.15-30.83-10.15c0,0-9.36-1.67-16.65,1.67,0,0-9.73,2.99-1.08,8.37s7.59,4.53,7.59,4.53Z" style="fill: #ffaacd; stroke: #000; stroke-miterlimit: 10; stroke-width: 2px;"/>
  <path d="M406.62,81.81s19.62,3.25,48.47-19.62c0,0,19.49-12.08-1.56-11.04,0,0-19.88,2.6-37.55,13.38,0,0-12.08,5.07-9.36,17.28Z" style="fill: #ffaacd; stroke: #000; stroke-miterlimit: 10; stroke-width: 2px;"/>
  <path d="M171.05,81.64s-11.43-10.74-3.89-20.12c0,0,7.69-8.23,19.96,0,0,0,9.64,7.77,17.41,21.83,0,0,4.46,11.32-1.71,18.06s-24.69-12.12-24.69-12.12l-7.09-7.66Z" style="fill: #f7931e; stroke: #000; stroke-miterlimit: 10; stroke-width: 2px;"/>
  <path d="M301.22,80.08s12.57-26.23,29.01-24.54c16.44,1.69,6.28,22.96,6.28,22.96,0,0-8.94,16.44-20.3,17.89,0,0-11.41,3.04-14.99-4.08-3.58-7.13,0-12.22,0-12.22Z" style="fill: #f7931e; stroke: #000; stroke-miterlimit: 10; stroke-width: 2px;"/>
  <path d="M160.9,18.39s22.35-10.71,44.24-11.53c0,0,10.48,6.99,10.83,19.79.35,12.81-8.08,5.19-8.08,5.19-3.12-1.93-12.03-13.01-24.29-14.04,0,0-7.57-3.03-22.7.58Z" style="fill: #f7931e; stroke: #000; stroke-miterlimit: 10; stroke-width: 2px;"/>
  <path d="M220.92,3.98s26.77-6.71,46.94,0c0,0-9.85,3.42-16.32,27.7,0,0-2.79,12.57-9.82,0,0,0-8.37-21.11-12.03-23.43,0,0-3.54-4.88-8.79-4.27Z" style="fill: #f7931e; stroke: #000; stroke-miterlimit: 10; stroke-width: 2px;"/>
  <path d="M290.27,7.76s17.5-1.06,36.86,9.81c0,0-24.13,3.93-36.86,12.24l-5.53,4.1s-5.87,4.87-6.27-2.69c-.4-7.56,2.52-15.25,2.52-15.25,0,0,2.92-7.56,9.28-8.22Z" style="fill: #f7931e; stroke: #000; stroke-miterlimit: 10; stroke-width: 2px;"/>
  <path d="M1.32,319.08s28.14-100.77,88.4-135.51c.93-.27,4.58,17.92,25.51,30.94,0,0-33.23,80.19,22.02,104.57H1.32Z" style="fill: #ffbf6a; stroke: #000; stroke-miterlimit: 10; stroke-width: 2px;"/>
  <path d="M408.46,232.8s31.12,30.83,39.87,86.28h-62.87s28.51-39.63,23-86.28Z" style="fill: #ffbf6a; stroke: #000; stroke-miterlimit: 10; stroke-width: 2px;"/>
  <path d="M88.48,180.73s34.18,2.36,51.49-35.06c0,0-26.09-11.07-19.89-38.96s39.25-29.45,39.25-29.45c0,0,5.44-1.29,8.54,1.29,0,0-10.33-14.21,2.84-19.63,13.17-5.42,23.26,10.07,23.26,10.07,0,0,10.16,12.66,12.13,20.04,0,0,16.27-9.71,28.41-23.66,12.14-13.95,22.33-14.73,22.33-14.73,0,0,17.25-4.77,44.89,28.29,0,0,11.26-21.21,25.39-23.49,0,0,14.55-1.92,12.49,14.1,0,0,20.3-17.45,41.61,4.43,0,0,21.91,31.36-7.79,51.29,0,0-5.67,3.99-16.92,7.4,0,0,14.51,24.4,33.88,23.11,0,0,16.74.53,33.78-8.26,0,0,4.49-35.86-23.6-72.35l-.84-1.2,7.94,11.3s-8.54-13.07,10.24-22.4c18.38-9.13,25.96-9.8,32.25-11.52,0,0,26.05-3.77,4.93,10.82,0,0,24.5-11.2,20.53-18.5,0,0-1.28-6.91-10.75-6.4s-35.64,7.05-71.16-2.42c-35.51-9.48-66.99-17.26-66.99-17.26,0,0-27.76,4.06-40.63,14.89-12.86,10.83-6.09-12.19-6.09-12.19,0,0,.68-8.12,10.15-12.52-.17-.01-10.43-3.84-22.51-3.94,0,0-10.42,4.65-16,26.24-4.77,18.44-12.43-3.84-14.67-10.72-.48-1.48-1.12-2.9-1.93-4.23-2.19-3.6-7.17-10.17-11.87-11.11-6.51-1.3-18.05,2.98-18.05,2.98,0,0,10.79,7.63,10.79,21.58.02,0,.47,12.58-13.21-1.3-13.57-13.78-35.17-10.05-35.17-10.05,0,0-22.7,2.23-42.24,17.3,0,0-15.82,10.61-40.19,14.33s-28.7,3.36-28.7,3.36c0,0-23,.04-31.21,4.46,0,0-11.16,4.09-4.09,11.35,6.65,6.83,26.48,12.79,28.81,13.47.02,0,.03-.02.01-.02-2.39-1.03-23.83-10.64-.06-14.68,4.78-.33,23.07.82,34.24,6.55l2.52,1.39c.63,1.03,12.93,8.14,8.02,18.04l-2.65,3.35,6.68,2.63c-2.07,2.71,7.56-10.44,16.24-16.48l1.66-.94c-.73-.36-29.11,18.92-33.33,55.94-2.12,18.6.72-9.82,0,0,.02.17-4.53,23.47,5.55,43.29" style="fill: #ffbf6a; stroke: #000; stroke-miterlimit: 10; stroke-width: 2px;"/>
  <path d="M408.46,232.8s-6.93-17.51-19.84-27.16" style="fill: none; stroke: #000; stroke-miterlimit: 10; stroke-width: 2px;"/>
</svg>