<?xml version="1.0" encoding="UTF-8"?>
<svg xmlns="http://www.w3.org/2000/svg" width="407.58" height="407.58" viewBox="0 0 407.58 407.58">
  <g id="background">
    <circle cx="203.79" cy="203.79" r="202.29" style="fill: #74a345; stroke: #000; stroke-miterlimit: 10; stroke-width: 3px;"/>
  </g>
  <g id="heart">
    <path d="M108.61,251.48c35.78,41.2,85.19,82.58,93.87,85.17,10.59,3.16,65.33-47.67,100.02-91.52,25.52-32.26,60.15-130-35.67-126.76-17.26.58-42.85,13.81-63.83,77.26,0,0-11.73-87.66-77.54-77.7-82.68,12.51-38.08,109.11-16.86,133.55Z" style="fill: #ff4a54; stroke: #000; stroke-miterlimit: 10; stroke-width: 5px;"/>
    <path d="M165.72,271.91c14.31,16.48,34.08,33.03,37.55,34.07,4.24,1.26,26.13-19.07,40.01-36.61,10.21-12.9,24.06-52-14.27-50.7-6.9.23-17.14,5.52-25.53,30.9,0,0-4.69-35.06-31.01-31.08-33.07,5-15.23,43.65-6.74,53.42Z" style="fill: #f2eac2; stroke: #000; stroke-miterlimit: 10; stroke-width: 3px;"/>
  </g>
</svg>