<?xml version="1.0" encoding="UTF-8"?>
<svg xmlns="http://www.w3.org/2000/svg" width="357.45" height="346.17" viewBox="0 0 357.45 346.17">
  <g id="helmet">
    <path d="M1.59,80.68S73.24-35.74,209.49,12.87c0,0,122.18,37.71,110.02,178.46,0,0-5.12,35.83-24.31,78.69,0,0-8.32,52.45,47.34,62.69,0,0,16.63-1.92,5.76-17.27,0,0,22.39,24.31-7.04,26.87s-59.49-20.47-71-46.06-14.07-33.9-11.51-65.89c0,0,3.84-81.88-65.89-111.3,0,0-55.83-18.19-81.42,23.39l-11.97-15.08-10.87-3.2-2.56-10.87S61.08,93.47,1.59,80.68Z" style="fill: none; stroke: #000; stroke-miterlimit: 10; stroke-width: 2px;"/>
    <path d="M91,117.92s39.53-56.03,108.93-29.86,72.81,82.19,72.81,82.19c0,0,2.28,27.87-9.1,55.46" style="fill: none; stroke: #000; stroke-miterlimit: 10; stroke-width: 2px;"/>
    <path d="M104.94,123.89c15.35-18.41,39.81-28.29,63.63-27.02,19.09,1.18,37.81,7.85,53.8,18.22,11.76,8.21,21.8,19.03,28.7,31.63,5.73,10.46,9.29,22.15,10.28,34.04.6,7.11.35,14.28-.56,21.34.77-9.45.59-19-1.31-28.26-1.74-9.24-5.09-18.22-9.75-26.37-7.03-12.21-16.81-22.85-28.44-30.81-11.85-7.59-25.14-13.12-38.87-16.15-27.77-6.37-58.19,2.08-77.48,23.37h0Z"/>
    <path d="M139.65,119.3s-6.71,7.24-1,13.24c0,0,60.64-21.61,92.46,29.72,0,0,26.42,29.72,2.4,75.05,0,0-9.85,22.33,10.08,32.72l-25.39-10.51s-12.61-1.5-11.11-28.82-23.89-31.82-23.89-31.82c0,0-92.28-8.71-94.38-24.31,0,0-18.91-3.78-33.92-24.71,0,0,18.31,55.32-3.3,103.05,0,0,12.91-41.12,99.36-21.31" style="fill: none; stroke: #000; stroke-miterlimit: 10; stroke-width: 2px;"/>
    <path d="M88.82,174.56s3.78-16.6,22.16-31.2" style="fill: none; stroke: #000; stroke-miterlimit: 10; stroke-width: 2px;"/>
    <path d="M133.07,228.17s12.46,27.1-3.22,74.72c0,0,40.9-24.4,38.38-77.19,0,0-3.33-11.61,8.14-9.93,0,0,31.64,4.48,15.67,40.06,0,0,25.07,40.61,53.52,40.55,9.87-.02-22.82-12.16-18.22-33.1" style="fill: none; stroke: #000; stroke-miterlimit: 10; stroke-width: 2px;"/>
    <g id="brushes">
      <path d="M7.83,75.71c28.98,3.73,63.63,15.3,83.96,37.07-2.93-2.55-5.93-4.99-9.1-7.2-22.33-15.4-48.63-23.8-74.86-29.87h0Z"/>
      <path d="M15.38,67.03c28.7,6.48,60.06,19.89,80.52,41.54-2.99-2.39-5.75-5.01-8.91-7.15-21.44-15.8-46.46-26.07-71.61-34.39h0Z"/>
      <path d="M22.91,59.7c27.86,7.9,56.98,22.26,76.99,43.54-2.91-2.33-5.58-4.9-8.62-7.04-20.59-15.76-44.32-27.05-68.37-36.49h0Z"/>
      <path d="M79.54,20.15c19.93,16.45,36.93,39.87,45.02,64.48-1.06-2.13-2.18-4.55-3.2-6.71,0,0-1.16-2.18-1.16-2.18-10.53-20.48-24.68-39.07-40.66-55.59h0Z"/>
      <path d="M95.9,14.75c18.16,17.29,30.17,42.54,35.93,66.72-1.19-2.97-2.18-5.99-3.38-8.94-8.07-20.6-18.32-40.72-32.56-57.78h0Z"/>
      <path d="M63.42,27.72c22.04,14.91,43.01,35.42,55.35,59.18-2-2.77-3.73-5.68-5.85-8.33-14.07-19.07-31.43-35.59-49.49-50.84h0Z"/>
      <path d="M31.71,51.14c26.78,10.62,53.45,26.52,73.23,47.64-2.84-2.32-5.47-4.85-8.41-7.04-19.89-16.01-42.16-28.95-64.82-40.6h0Z"/>
      <path d="M41.01,43.25c25,13.99,48.48,31.28,68.02,52.3-2.76-2.3-5.34-4.78-8.13-7.03-19.04-16.26-39.34-30.98-59.89-45.27h0Z"/>
      <path d="M51.6,36.76c23.77,13.37,46.46,32.13,61.76,54.85-2.33-2.58-4.41-5.34-6.84-7.8-16.26-17.85-35.25-33.12-54.92-47.05h0Z"/>
      <path d="M151.89,5.17c7.35,22.88,11.36,47.21,9.37,71.26-.23-3.01-.18-6.01-.48-9-1.18-20.97-4.87-41.67-8.89-62.26h0Z"/>
      <path d="M167.57,6.79c2.25,11.57,2.86,23.39,3.1,35.16.15,11.77-.3,23.55-1.58,35.26-.46-23.39-.15-47.04-1.52-70.41h0Z"/>
      <path d="M136.7,5.17c5.84,10.87,9.95,22.63,12.97,34.58,2.98,11.94,4.66,24.37,4.34,36.67-.29-2.2-.53-4.66-.76-6.88-2.83-22.04-8.62-43.63-16.55-64.38h0Z"/>
      <path d="M109.03,9.52c15.23,19.55,26.14,44.95,30.2,69.37-6.99-24.34-17-47.74-30.2-69.37h0Z"/>
      <path d="M122.52,6.79c6.84,10.57,12.07,22.23,16.27,34.09,4.16,11.88,7.12,24.32,8.24,36.86-.78-3.06-1.28-6.16-2.13-9.19-5.17-21.32-12.88-41.99-22.38-61.77h0Z"/>
      <path d="M181.96,9.52c1.92,22.58.13,45.45-4.07,67.68,1.46-22.53,3.25-45.12,4.07-67.68h0Z"/>
      <path d="M194.86,12.99c1.06,11.1-.07,22.28-1.54,33.29-1.57,11.01-3.82,21.92-6.88,32.61,3.04-21.94,7.25-43.76,8.41-65.91h0Z"/>
      <path d="M247.28,38.11c-12.64,15.72-23.08,32.98-32.23,50.92,6.51-18.92,17.62-37.18,32.23-50.92h0Z"/>
      <path d="M259.69,47.42c-13.12,11.43-24.05,25.12-33.57,39.62-1.38,2.07-2.65,4.21-4.07,6.28,7.94-17.86,21.07-35.26,37.64-45.9h0Z"/>
      <path d="M236.31,30.07c-10.02,15.2-17.71,31.76-24.5,48.6-.98,2.41-1.89,4.85-2.92,7.26,4.79-19.74,13.91-40.54,27.42-55.86h0Z"/>
      <path d="M208.89,17.31c-1.47,21.78-6.74,43.24-13.96,63.79,4.48-20.93,9.86-42.8,13.96-63.79h0Z"/>
      <path d="M222.05,21.6c-4.54,21.12-11.51,41.7-20.15,61.48,6.02-20.65,13-41.19,20.15-61.48h0Z"/>
      <path d="M291.11,81.46c-16.06,3.58-30.96,11.5-43.3,22.32-1.82,1.51-3.44,3.23-5.24,4.78.73-.93,1.47-1.86,2.22-2.78,11.39-13.62,28.48-23.15,46.31-24.32h0Z"/>
      <path d="M283.08,70.8c-14.99,4.82-28.32,13.97-39.32,25.11-2.52,2.49-5.05,5.42-7.45,8.02,10.18-16.26,27.52-30.05,46.77-33.13h0Z"/>
      <path d="M271.57,57.31c-13.98,10.38-26.46,22.7-37.49,36.14-1.61,1.9-3.09,3.91-4.72,5.82,9.88-17.09,24.77-32.56,42.21-41.96h0Z"/>
      <path d="M315.8,148.22c-14.73-1.64-29.43-2.48-44.08,0,13.85-5.21,30.1-4.37,44.08,0h0Z"/>
      <path d="M312.13,135.74c-14.86.68-29.48,2.76-44.06,5.6,13.84-5.53,29.28-7.68,44.06-5.6h0Z"/>
      <path d="M309.43,125.18c-15.5,1.49-30.76,4.28-45.62,8.96,13.53-7.2,30.38-10.28,45.62-8.96h0Z"/>
      <path d="M306.14,115.32c-15.74,1.55-31.15,5.07-45.85,10.94,13.45-8.39,30.07-12.18,45.85-10.94h0Z"/>
      <path d="M301.89,103.23c-14.53,1.77-28.4,6.96-41.24,13.84-1.86.97-3.64,2.06-5.53,3.03,12.83-10.59,29.96-17.72,46.77-16.87h0Z"/>
      <path d="M295.71,91.62c-15.17,2.38-28.92,9.9-41.51,18.36-1.81,1.24-3.57,2.54-5.43,3.75,12.02-11.96,29.55-22.35,46.93-22.11h0Z"/>
      <path d="M314.59,195.41c-11.84-7.07-24.32-12.58-37.88-15.15,1.67-.02,3.53-.04,5.2.15,12.01,1.27,23.85,6.77,32.68,14.99h0Z"/>
      <path d="M315.8,183.94c-10.76-5.2-22.31-8.34-34.03-10.47-1.68-.33-3.38-.55-5.07-.92,13.59-.52,28.23,2.97,39.09,11.39h0Z"/>
      <path d="M315.8,171.75c-9.64-3.47-19.72-5.61-29.9-6.65-3.41-.4-6.83-.54-10.27-.84,13.62-2.02,28.36.21,40.16,7.49h0Z"/>
      <path d="M317.37,160.17c-14.36-3.61-29.07-4.81-43.85-4.45,14.51-3.15,30.34-1.82,43.85,4.45h0Z"/>
      <path d="M313.09,205.47c-11.09-7.74-23.2-13.85-36.4-16.96,13.55.26,27.23,7.11,36.4,16.96h0Z"/>
      <path d="M293.77,263.69c-12.01-11.48-20.3-27.82-24.82-43.69,7.16,14.95,14.9,30.39,24.82,43.69h0Z"/>
      <path d="M300.17,246.18c-12.33-7.61-22.02-20.36-28.25-33.31,1.16,1.44,2.21,2.93,3.31,4.39,7.62,10.22,15.57,20.2,24.93,28.91h0Z"/>
      <path d="M306.14,231.39c-11.97-7.1-22.73-16.23-32.02-26.58,11.14,8.29,21.69,17.28,32.02,26.58h0Z"/>
      <path d="M309.43,218.1c-10.95-7.97-22.37-15.03-33.98-21.98,12.81,4.45,24.83,11.92,33.98,21.98h0Z"/>
      <path d="M350.79,337.07c-24.15,6-50.47-4.37-65.3-24.11-4.69-5.97-8.67-12.77-11.75-19.7-6.91-15.29-10.48-31.97-12.27-48.55,3.66,20.79,9.09,41.66,20.39,59.66,14.49,23.88,41.03,37.53,68.93,32.69h0Z"/>
      <path d="M330.61,333.74c-21.89-2.8-38.68-21.94-48.79-40.31-10.41-19.16-16.2-40.58-19.35-62.05,2.34,10.6,5.06,21.09,8.43,31.36,9.34,28.44,27.96,64.09,59.7,70.99h0Z"/>
      <path d="M296.54,302.9c-15.03-22.48-25.21-49.23-28.99-76,6.58,26.41,16.26,51.94,28.99,76h0Z"/>
    </g>
  </g>
  <g id="face">
    <path d="M85.76,228.57c-.06,15.18-1.31,31.1-1.82,46.24,0,0-.04-.42-.04-.42.54,1.93,1.64,4.87,4.04,4,.79-.24,1.58-.85,2.28-1.35,2.46-1.87,6.05-1.04,7.74,1.38,0,0-.8-.52-.8-.52.76.19,1.8.32,2.68.25,3.1-.16,4.74-2.5,5.29-5.35.1-1.41-.35-4.33-2.29-5.07-1.96-.9-4.53-.2-6.56.36,0,0-.08-.18-.08-.18.97-.38,2.36-.87,3.37-1.06,5.89-1.23,8.14,4.68,5.73,9.28-1.47,3.2-5.42,4.22-8.63,3.41-.94-1.22-2.46-2.06-4.01-1.63-1.54.39-2.54,1.87-4.08,2.29-1.53.64-3.42.18-4.49-1.1-1.11-1.22-1.75-2.76-2.14-4.33.1-3.87.35-7.72.62-11.58.83-11.56,1.88-23.1,2.99-34.64,0,0,.2.02.2.02h0Z"/>
    <path d="M87.84,278.6c4.88,1.3,10.47,1.62,15.08-.81-3.29,2.35-7.47,3.08-11.46,3.07-1.36-.01-2.68-.09-4.09-.31,0,0,.47-1.94.47-1.94h0Z"/>
    <path d="M99.43,279.61c-.58,2.73-1.74,8.28,1.67,9.48,3.66-1.18,11.18-1.3,16.16-.63-4.09-.2-8.2.04-12.21.83-1.37.27-2.75.6-4.04,1.04-2.46-.3-3.62-2.95-3.81-5.1-.23-2.06-.08-4.04.29-6.08,0,0,1.95.46,1.95.46h0Z"/>
    <path d="M102.82,290.17c.13,3.08,1.7,7.14,5.47,6.21,3.51-.71,6.96-1.8,10.23-3.28-1.56.9-3.2,1.69-4.86,2.4-5.01,2.05-9.58,4.22-12.1-2.33-.34-.92-.59-1.81-.74-2.83l1.99-.16h0Z"/>
    <path d="M111.17,296.9c1.12,6.03,2.65,12.26,5.52,17.7,0,0-.31-.31-.31-.31,8.14,3.46,17.52.27,25.09-3.35,8.31-3.48,16.62-6.98,24.73-10.9,5.43-2.43,9.47-7.49,11.33-13.08,1.37-4.23,1.39-8.94.52-13.28-.98-4.36-2.21-8.79-4.16-12.83,2.02,4.01,3.32,8.42,4.38,12.78,1.7,7.35.39,15.61-4.62,21.44-3.8,4.91-9.87,6.92-15.24,9.59-5.46,2.54-10.95,5-16.47,7.4-6.8,3.47-15.1,6.35-22.99,4.8-1.21-.24-2.4-.58-3.61-1.22-1.66-2.9-2.83-6-3.82-9.12-.95-3.06-1.73-6.13-2.33-9.29l1.97-.34h0Z"/>
    <path d="M144.99,309.99c6.5.2,13.98,3.69,15.03,10.57,1.04,5.41,1.23,10.94.12,16.33-.62,3.21-1.65,6.33-3.05,9.28,0,0-.19-.06-.19-.06,1.06-6.31,1.91-12.59,2.12-18.97.23-7.9-1.32-13.13-9.37-15.88-1.5-.51-3.07-.9-4.65-1.07,0,0,.01-.2.01-.2h0Z"/>
    <path d="M221.84,287.84c1.68,10.76,5.66,21.48,12.7,29.88,6.2,7.25,15.09,11.25,23.91,14.43,5.55,1.92,11.24,3.32,17.01,4.46,0,0-.02.2-.02.2-3.68-.12-7.43-.57-11.06-1.25-15.61-2.96-30.13-11.52-36.82-26.41-3.13-6.71-5.12-13.94-5.91-21.29,0,0,.2-.02.2-.02h0Z"/>
    <path d="M97.63,239.96c2.19-4.5,8.25-5.81,12.69-3.85.3.12,1.08.44,1.36.54,4.99,1.75,10.26,2.26,15.53,1.35-4.95,2.56-11.04,2.36-16.23.5-4.56-2.26-9.45-2.41-13.35,1.45h0Z"/>
    <path d="M106.57,236.77s-3.77,9.37,4.56,11.07" style="fill: none; stroke: #000; stroke-miterlimit: 10; stroke-width: 2px;"/>
    <path d="M122.09,239.06c-3.16,5.71-9.49,11.19-16.37,10.63,6.32-2.32,10.95-6.71,16.37-10.63h0Z"/>
  </g>
</svg>