<?xml version="1.0" encoding="UTF-8"?>
<svg id="Layer_1" data-name="Layer 1" xmlns="http://www.w3.org/2000/svg" width="845.95" height="218.18" viewBox="0 0 845.95 218.18">
  <path d="M134.13,27.99s15.34,20.87,45.19,29.07c1.5.41,14.36-24.18,14-40.83,0,0,7.14.46,17.75,12.01,0,0-7.18,18.11-8.12,33.73,0,0-5.31,22.8.31,54.02,0,0-.31,64.95-71.82,82.13,0,0-5.39-20.2-23.61-18.73-6.03.49,75.76-.77,69.51-79.39,0,0,7.18-17.73,4.68-19.6s-14.68-2.5-14.68-2.5c0,0-80.57-87.75-147.39,19.05l-13.09,3.53s1.31-30.1,25.52-50.39l2.23,9.75c2.11-1.06,22.44-4.49,43.56-27.72,0,0-2.11-3.7-8.71-7.92,0,0,38.08-26.23,93.98-18.11,0,0-24.15,9.91-29.32,21.92" style="fill: #3f0022; stroke: #000; stroke-miterlimit: 10;"/>
  <path d="M7.69,115.32s4.65,47.68,51.71,72.61c-.89-.46,4.11-6.7,8.85-9.69,0,0-42.81-17.75-51.39-54.74l-9.17-8.18Z" style="fill: #3f0022; stroke: #000; stroke-miterlimit: 10;"/>
  <path d="M110.78,187.51s.39-10.23-11.79-10.23-11.21,9.28-11.21,9.28c0,0-.58,6.86,6.96,11.55,0,0,13.53,3.89,16.05-10.6Z" style="fill: #3f0027; stroke: #000; stroke-miterlimit: 10;"/>
  <path d="M90.58,179.15s-9.87-9.22-22.33-.91c0,0-8.12,4.45-11.99,15.08,0,0-7.73,12.57-13.15,13.53s0,3.87,0,3.87c0,0,8.7-7.15,25.13-6.96s24.74-6.89,24.74-6.89c0,0-10.01-7.29-2.41-17.72Z" style="fill: #3f0027; stroke: #000; stroke-miterlimit: 10;"/>
  <path d="M104.29,197.38s9.58,26.49,30.85,18.95c0,0,10.63-2.13,3.67-6.77,0,0-6.4-5.08-7.37-11.46,0,.12-3.11-19.7-23.61-18.73,0,0,8.9,10.67-3.55,18Z" style="fill: #3f0027; stroke: #000; stroke-miterlimit: 10;"/>
  <path d="M37.25,10.25s-9.44,25.32-2.62,49.57c0,0,22.65-4.76,43.56-27.72,0,0-15.57-18.95-40.94-21.85Z" style="fill: none; stroke: #000; stroke-miterlimit: 10;"/>
  <path d="M162.31,6.69s-19.63,7.97-28.18,21.29c.85,1.26,14.86,20.85,45.19,29.07,0,0,12.86-17.16,13.8-38.02,0,0,.16-11.89-4.65-18.48,0,0-13.42-1.07-26.16,6.14Z" style="fill: none; stroke: #000; stroke-miterlimit: 10;"/>
  <path d="M.66,104.69s29.43-19.84,73.89-7.18c0,0,13.22-7.03,21.95-.84,0,0,34.76-26.66,87.29-17.02,0,0-5.32,36.75-40.85,58.76,0,0-24.84-3.46-46.85-33.33,0,0-10.38-6.92-19.5.94,0,0-19.81,28.3-31.76,32.39,0,0-30.83-9.16-44.16-33.72Z" style="fill: #fff; stroke: #000; stroke-miterlimit: 10;"/>
  <path d="M13.07,107.97s23.05-12.96,53.78-4.79c0,0-7.44,18.34-23.3,26.02,0,0-17.59-1.83-30.48-21.23Z" style="fill: #0d002c; stroke: #000; stroke-miterlimit: 10;"/>
  <path d="M106.74,100.9s27.01-19.77,64.18-13.33c0,0-3.72,24.53-28.5,40.39,0,0-20.57-3.08-35.68-27.06Z" style="fill: #0d002c; stroke: #000; stroke-miterlimit: 10;"/>
  <path d="M76.7,113.78s10.96-7.98,21.8-.44c.19-.16-3.73,7.53-10.17,10.9,0,0-5.96-1.31-11.63-10.46Z" style="stroke: #000; stroke-miterlimit: 10;"/>
  <path d="M88.33,124.25l.97,14.77s-9.59,4.2-11.43,14.23" style="fill: none; stroke: #000; stroke-miterlimit: 10;"/>
  <path d="M103.94,153.44s-4.18-13.03-14.64-14.43" style="fill: none; stroke: #000; stroke-miterlimit: 10;"/>
  <text transform="translate(219.41 139.01)" style="fill: #fff; font-family: Kalnia-Regular, Kalnia; font-size: 90px; font-variation-settings: &apos;wght&apos; 400, &apos;wdth&apos; 100; stroke: #000; stroke-miterlimit: 10; stroke-width: 3px;"><tspan x="0" y="0">KIA VINTHER</tspan></text>
</svg>