<?xml version="1.0" encoding="UTF-8"?>
<svg xmlns="http://www.w3.org/2000/svg" width="288.05" height="323.86" viewBox="0 0 288.05 323.86">
  <g id="Layer_1" data-name="Layer 1">
    <path d="M84.28,89.32s18.73-16.05,37.46,0c0,0,13.04,13.38,0,33.11,0,0-14.94,15.94-36.68,3.24,0,0-19.17-18.95-.78-36.34Z" style="stroke: #000; stroke-miterlimit: 10; stroke-width: 2px;"/>
    <path d="M125.83,69.34s-11.13,3.01-12.19,13.69" style="fill: none; stroke: #000; stroke-miterlimit: 10; stroke-width: 2px;"/>
    <polygon points="109.13 82.18 110.94 77.62 119.06 81.23 117.41 84.54 109.13 82.18" style="stroke: #000; stroke-miterlimit: 10; stroke-width: 2px;"/>
    <path d="M121.92,57.74s6.77,11.13,13.09,0c0,0-6.98,6.53,3.01,11.13,0,0-13.13,0-8.05,6.17,0,0-4.59-10.68-10.91-6.17,0,0,11.43-2.71,2.86-11.13Z" style="fill: none; stroke: #000; stroke-miterlimit: 10; stroke-width: 2px;"/>
    <polygon points="47.78 173.05 65.69 174.57 65.69 204.02 47.78 201.59 47.78 173.05" style="fill: none; stroke: #000; stroke-miterlimit: 10; stroke-width: 2px;"/>
    <polygon points="76.3 185.8 82.39 177.49 86.94 185.8 81.62 194.61 76.3 185.8" style="fill: none; stroke: #000; stroke-miterlimit: 10; stroke-width: 2px;"/>
    <path d="M166.05,251.42s-86.46-23.89-134.41-23.89c0,0-20.9,14.87-30.37,39.66,0,0,67.4,29.3,133.31,33.8,0,0,31.71-34.2,31.46-49.58Z" style="fill: none; stroke: #000; stroke-miterlimit: 10; stroke-width: 2px;"/>
    <polyline points="166.05 251.42 170.62 274.86 135.38 321.05 134.59 301" style="fill: none; stroke: #000; stroke-miterlimit: 10; stroke-width: 2px;"/>
    <path d="M1.28,267.2v27.96s64.09,27.42,133.31,27.71" style="fill: none; stroke: #000; stroke-miterlimit: 10; stroke-width: 2px;"/>
    <path d="M28.9,235.04s68.84,4.94,128.38,23.24" style="fill: none; stroke: #000; stroke-miterlimit: 10; stroke-width: 2px;"/>
    <path d="M22.8,243.17s74.93,3.91,128.38,24.03" style="fill: none; stroke: #000; stroke-miterlimit: 10; stroke-width: 2px;"/>
    <path d="M16.41,251.42s69.71,3.37,128.38,26.02" style="fill: none; stroke: #000; stroke-miterlimit: 10; stroke-width: 2px;"/>
    <path d="M10.89,260.24s71.74,3.76,125.18,28.2" style="fill: none; stroke: #000; stroke-miterlimit: 10; stroke-width: 2px;"/>
    <path d="M21.35,270.98s12.02-26.86,30.5-38.26" style="fill: none; stroke: #000; stroke-miterlimit: 10; stroke-width: 2px;"/>
    <path d="M41.68,274.34s10.1-30.29,26.25-39.3" style="fill: none; stroke: #000; stroke-miterlimit: 10; stroke-width: 2px;"/>
    <path d="M62.59,264.27s3.19-17.03,16.26-26.91" style="fill: none; stroke: #000; stroke-miterlimit: 10; stroke-width: 2px;"/>
    <path d="M80.6,267.2s4.65-20.54,15.1-26.35" style="fill: none; stroke: #000; stroke-miterlimit: 10; stroke-width: 2px;"/>
    <path d="M89.31,288.44s8.13-36.26,22.95-45.27" style="fill: none; stroke: #000; stroke-miterlimit: 10; stroke-width: 2px;"/>
    <path d="M105.17,292.84s3.9-30.5,20.74-46.18" style="fill: none; stroke: #000; stroke-miterlimit: 10; stroke-width: 2px;"/>
    <path d="M122.13,292.84s3.49-29.73,20.91-42.02" style="fill: none; stroke: #000; stroke-miterlimit: 10; stroke-width: 2px;"/>
  </g>
  <g id="computer">
    <path d="M27.45,43.68c.21-8.62-3.54-25.4,22.34-26.3s123.16,5.35,123.16,5.35c0,0,11.11-.3,11.6,16.06.59,19.74,3.56,125.72,3.56,125.72,0,0-1.14,11.39-13.02,9.93-8.93-1.1-133.33-15.16-133.33-15.16,0,0-9.92,1.66-12.26-17.85-2.26-18.79-2.69-71.64-2.04-97.76Z" style="fill: none; stroke: #000; stroke-miterlimit: 10; stroke-width: 2px;"/>
    <path d="M179.13,24.74s28.54-9.52,34.77-15.63c1.85-1.82-55.62-9.94-131.82-7.73l-38.53,16.83" style="fill: none; stroke: #000; stroke-miterlimit: 10; stroke-width: 2px;"/>
    <path d="M179.22,174.41s21.4.35,35.02-10.32l-.34-154.98" style="fill: none; stroke: #000; stroke-miterlimit: 10; stroke-width: 2px;"/>
    <path d="M213.92,18.94l61.06,15.29s10.9,51.52,0,88.18l-60.12,37.12" style="fill: none; stroke: #000; stroke-miterlimit: 10; stroke-width: 2px;"/>
    <line x1="213.96" y1="34.24" x2="274.98" y2="34.24" style="fill: none; stroke: #000; stroke-miterlimit: 10; stroke-width: 2px;"/>
    <path d="M35.62,157.86s-6.76,32.43-2.65,49.56c0,0,2.06,6.51,6.51,7.54s76.65,17.13,148.63,23.29c0,0,9.49,1.03,10.59-8.91v-53.1l66.8-33.83-.61,57.47-69.18,35.97" style="fill: none; stroke: #000; stroke-miterlimit: 10; stroke-width: 2px;"/>
    <line x1="245.06" y1="140.89" x2="266.39" y2="141.71" style="fill: none; stroke: #000; stroke-miterlimit: 10; stroke-width: 2px;"/>
    <path d="M34.68,159.53s65.61,13.85,145.29,17.96l18.73-1.25" style="fill: none; stroke: #000; stroke-miterlimit: 10; stroke-width: 2px;"/>
    <path d="M266.39,183.9s45.1,20.5,2.02,41c-11.72,5.57-42.88,3.36-37.91,35.46,0,0,23.85,7.51,13.97,40.27,0,0-4.15,27.99-32.95,21.16,0,0-26.76-3.41-18.57-36.86,0,0,7.28-30.24,37.54-24.57" style="fill: none; stroke: #000; stroke-miterlimit: 10; stroke-width: 2px;"/>
    <path d="M197.11,285.04s28.27-12.19,44.36,10.12" style="fill: none; stroke: #000; stroke-miterlimit: 10; stroke-width: 2px;"/>
    <path d="M229.82,260.24s-7.93,5.92-8.58,21.48" style="fill: none; stroke: #000; stroke-miterlimit: 10; stroke-width: 2px;"/>
    <path d="M50.66,40.21s-23.45,44.48-1.71,102.21c0,0,58.73,22.32,112.53,9.68,0,0,18.3-53.97,3.13-107.05,0,0-60.37-19.5-113.95-4.84Z" style="fill: none; stroke: #000; stroke-miterlimit: 10; stroke-width: 2px;"/>
    <polygon points="166.03 160.99 161.47 163.84 166.03 168.51 170.62 164.75 166.03 160.99" style="fill: none; stroke: #000; stroke-miterlimit: 10; stroke-width: 2px;"/>
    <line x1="246.87" y1="58.22" x2="269.23" y2="55.22" style="fill: none; stroke: #000; stroke-miterlimit: 10; stroke-width: 2px;"/>
    <line x1="246.87" y1="75.8" x2="269.23" y2="72.8" style="fill: none; stroke: #000; stroke-miterlimit: 10; stroke-width: 2px;"/>
    <line x1="246.87" y1="69.94" x2="269.23" y2="66.94" style="fill: none; stroke: #000; stroke-miterlimit: 10; stroke-width: 2px;"/>
    <line x1="246.87" y1="64.08" x2="269.23" y2="61.08" style="fill: none; stroke: #000; stroke-miterlimit: 10; stroke-width: 2px;"/>
  </g>
</svg>