<?xml version="1.0" encoding="UTF-8"?>
<svg xmlns="http://www.w3.org/2000/svg" width="402.69" height="550.4" viewBox="0 0 402.69 550.4">
  <g id="catface">
    <path d="M244.05,27.99s15.34,20.87,45.19,29.07c1.5.41,14.36-24.18,14-40.83,0,0,7.14.46,17.75,12.01,0,0-7.18,18.11-8.12,33.73,0,0-5.31,22.8.31,54.02,0,0-.31,64.95-71.82,82.13,0,0-5.39-20.2-23.61-18.73-6.03.49,75.76-.77,69.51-79.39,0,0,7.18-17.73,4.68-19.6s-14.68-2.5-14.68-2.5c0,0-80.57-87.75-147.39,19.05l-13.09,3.53s1.31-30.1,25.52-50.39l2.23,9.75c2.11-1.06,22.44-4.49,43.56-27.72,0,0-2.11-3.7-8.71-7.92,0,0,38.08-26.23,93.98-18.11,0,0-24.15,9.91-29.32,21.92" style="fill: #3f0022; stroke: #000; stroke-miterlimit: 10;"/>
    <path d="M117.6,115.32s4.65,47.68,51.71,72.61c-.89-.46,4.11-6.7,8.85-9.69,0,0-42.81-17.75-51.39-54.74l-9.17-8.18Z" style="fill: #3f0022; stroke: #000; stroke-miterlimit: 10;"/>
    <path d="M220.7,187.51s.39-10.23-11.79-10.23-11.21,9.28-11.21,9.28c0,0-.58,6.86,6.96,11.55,0,0,13.53,3.89,16.05-10.6Z" style="fill: #3f0027; stroke: #000; stroke-miterlimit: 10;"/>
    <path d="M200.49,179.15s-9.87-9.22-22.33-.91c0,0-8.12,4.45-11.99,15.08,0,0-7.73,12.57-13.15,13.53s0,3.87,0,3.87c0,0,8.7-7.15,25.13-6.96s24.74-6.89,24.74-6.89c0,0-10.01-7.29-2.41-17.72Z" style="fill: #3f0027; stroke: #000; stroke-miterlimit: 10;"/>
    <path d="M214.21,197.38s9.58,26.49,30.85,18.95c0,0,10.63-2.13,3.67-6.77,0,0-6.4-5.08-7.37-11.46,0,.12-3.11-19.7-23.61-18.73,0,0,8.9,10.67-3.55,18Z" style="fill: #3f0027; stroke: #000; stroke-miterlimit: 10;"/>
    <path d="M147.17,10.25s-9.44,25.32-2.62,49.57c0,0,22.65-4.76,43.56-27.72,0,0-15.57-18.95-40.94-21.85Z" style="fill: none; stroke: #000; stroke-miterlimit: 10;"/>
    <path d="M272.23,6.69s-19.63,7.97-28.18,21.29c.85,1.26,14.86,20.85,45.19,29.07,0,0,12.86-17.16,13.8-38.02,0,0,.16-11.89-4.65-18.48,0,0-13.42-1.07-26.16,6.14Z" style="fill: none; stroke: #000; stroke-miterlimit: 10;"/>
    <path d="M110.57,104.69s29.43-19.84,73.89-7.18c0,0,13.22-7.03,21.95-.84,0,0,34.76-26.66,87.29-17.02,0,0-5.32,36.75-40.85,58.76,0,0-24.84-3.46-46.85-33.33,0,0-10.38-6.92-19.5.94,0,0-19.81,28.3-31.76,32.39,0,0-30.83-9.16-44.16-33.72Z" style="fill: #fff; stroke: #000; stroke-miterlimit: 10;"/>
    <path d="M122.99,107.97s23.05-12.96,53.78-4.79c0,0-7.44,18.34-23.3,26.02,0,0-17.59-1.83-30.48-21.23Z" style="fill: #0d002c; stroke: #000; stroke-miterlimit: 10;"/>
    <path d="M216.65,100.9s27.01-19.77,64.18-13.33c0,0-3.72,24.53-28.5,40.39,0,0-20.57-3.08-35.68-27.06Z" style="fill: #0d002c; stroke: #000; stroke-miterlimit: 10;"/>
    <path d="M186.62,113.78s10.96-7.98,21.8-.44c.19-.16-3.73,7.53-10.17,10.9,0,0-5.96-1.31-11.63-10.46Z" style="stroke: #000; stroke-miterlimit: 10;"/>
    <path d="M198.25,124.25l.97,14.77s-9.59,4.2-11.43,14.23" style="fill: none; stroke: #000; stroke-miterlimit: 10;"/>
    <path d="M213.86,153.44s-4.18-13.03-14.64-14.43" style="fill: none; stroke: #000; stroke-miterlimit: 10;"/>
  </g>
  <g id="cat_body" data-name="cat body">
    <path d="M144.71,169.65s-37.87,38.11-48.71,138.66c0,0-4.59,49.65-27.95,56.32l-3.63,1.02,6.76,5.82s-14.24,6.36-10.17,12.97c0,0,7.3,9.58,18.57,6.1,2.03-.63,2.8-1.78,2.8-1.78" style="fill: none; stroke: #000; stroke-miterlimit: 10;"/>
    <path d="M84.16,377.06s-12.46,14.64,8.65,13.81c0,0,11.44-.07,23.4-13.81" style="fill: none; stroke: #000; stroke-miterlimit: 10;"/>
    <polygon points="31.26 339.42 71.19 371.47 63.12 376.74 25.91 343.75 31.26 339.42" style="fill: none; stroke: #000; stroke-miterlimit: 10;"/>
    <polygon points="27.48 335.66 21.82 339.82 24.98 343.24 30.61 338.67 27.48 335.66" style="stroke: #000; stroke-miterlimit: 10;"/>
    <path d="M14.13,332.47s-26.32-15.01-5.81-87.57c4.61-16.33,2.32-19.34,5.62-56.96,2.86-32.65,43.84-56.74,49.54-13.16,0,0,2.9,32.15-12.1,42.91s-16.46-5.79-10.6-13.71c6.21-8.4,20.28-16.88,34.31-16.04s15,15.84,15,15.84c0,0,10.56,17.9-49.35,61.93,0,0-38.48,17.05-14.52,58.54" style="fill: none; stroke: #000; stroke-miterlimit: 10;"/>
    <path d="M57.01,371.83s-7.52,7.7,4,12.61" style="fill: none; stroke: #000; stroke-miterlimit: 10;"/>
    <path d="M150.62,192.75s-62.59,70.11-27.64,179.08c0,0,17.07,64.98,74.69,67.32,0,0,15.96,2.81,29.07-7.49" style="fill: none; stroke: #000; stroke-miterlimit: 10;"/>
    <path d="M237.5,360.53s-36.97,38.84,0,87.05c0,0,21.1,33.23,13.59,60.37s3.37,29.93,3.37,29.93c0,0,6.17,5.24,23.13-4.01,0,0,12.03-5.24,15.11-46.27s13.88-68.48,13.88-68.48c0,0,12.95-32.76,7.29-130.17" style="fill: none; stroke: #000; stroke-miterlimit: 10;"/>
    <path d="M120.16,362.34c-1.42-.64-15.81,41.52,14.23,90.91,0,0,16.65,36.28,2.23,66.47s8.09,30.18,8.09,30.18c0,0,27.46,0,38.19-31.19s15.63-66.61,15.63-66.61c0,0,1.19-10.45.52-12.78" style="fill: none; stroke: #000; stroke-miterlimit: 10;"/>
    <path d="M136.18,546.6s-2.26-8.82,5.43-15.27" style="fill: none; stroke: #000; stroke-miterlimit: 10;"/>
    <path d="M150.41,549.17s-3.35-9.4,1.61-14.61" style="fill: none; stroke: #000; stroke-miterlimit: 10;"/>
    <path d="M255.15,524.95s-2.06,11.53,2.32,14.12" style="fill: none; stroke: #000; stroke-miterlimit: 10;"/>
    <path d="M266.87,524.95s.64,8.84,4.9,11.72" style="fill: none; stroke: #000; stroke-miterlimit: 10;"/>
    <path d="M298.18,167.55s36.2,55.02,22.81,105.47c0,0-8.75,34.88-43.84,39.42-40.1,5.19-73.2,15.43-77.93,17.29-8.03,3.17-28.52,3-21.05-27.39,0,0,6.18-19.74,42.54-25.68,40.39-8.12,49.43-12.71,52.82-19.68,0,0,2.59-3.42-5.42-20.54" style="fill: none; stroke: #000; stroke-miterlimit: 10;"/>
    <path d="M176.56,313.65s3.55-8,11.54-6.31" style="fill: none; stroke: #000; stroke-miterlimit: 10;"/>
    <path d="M184.01,329.29s.94-9.53,9.65-13.17" style="fill: none; stroke: #000; stroke-miterlimit: 10;"/>
    <polyline points="187.5 290.23 175.5 253 249.2 228.27 261.13 266.34" style="fill: none; stroke: #000; stroke-miterlimit: 10;"/>
    <polyline points="179.99 251.45 182.87 245.09 250.63 223.72" style="fill: none; stroke: #000; stroke-miterlimit: 10;"/>
    <polyline points="179.99 251.45 176.54 242.41 251.93 219.6 249.2 228.27" style="fill: none; stroke: #000; stroke-miterlimit: 10;"/>
    <line x1="251.93" y1="219.6" x2="266.9" y2="263.61" style="fill: none; stroke: #000; stroke-miterlimit: 10;"/>
    <path d="M246.16,242.7s13.81,2.1,14.97-9.15c0,0-.87-2.17-4.6-1.02" style="fill: none; stroke: #000; stroke-miterlimit: 10;"/>
    <path d="M250.26,256.07s13.81,2.1,14.97-9.15c0,0-.87-2.17-4.6-1.02" style="fill: none; stroke: #000; stroke-miterlimit: 10;"/>
    <path d="M245.07,238.34s13.81,2.1,14.97-9.15c0,0-.87-2.17-4.6-1.02" style="fill: none; stroke: #000; stroke-miterlimit: 10;"/>
    <path d="M249.17,251.29s13.81,2.1,14.97-9.15c0,0-.87-2.17-4.6-1.02" style="fill: none; stroke: #000; stroke-miterlimit: 10;"/>
    <path d="M247.83,246.56s13.81,2.1,14.97-9.15c0,0-.87-2.17-4.6-1.02" style="fill: none; stroke: #000; stroke-miterlimit: 10;"/>
    <path d="M252.91,264.25s13.81,2.1,14.97-9.15c0,0-.87-2.17-4.6-1.02" style="fill: none; stroke: #000; stroke-miterlimit: 10;"/>
    <path d="M251.61,259.81s13.81,2.1,14.97-9.15c0,0-.87-2.17-4.6-1.02" style="fill: none; stroke: #000; stroke-miterlimit: 10;"/>
    <path d="M270.31,316.89s12.26,1.65,13.47-6.05" style="fill: none; stroke: #000; stroke-miterlimit: 10;"/>
    <path d="M271.2,320.88s13.81,2.1,14.97-9.15c0,0-1.05-1.16-4.79-.01" style="fill: none; stroke: #000; stroke-miterlimit: 10;"/>
    <polyline points="200.24 329.35 205.06 346.97 279.65 324.99 275.08 312.46" style="fill: none; stroke: #000; stroke-miterlimit: 10;"/>
    <polyline points="279.65 324.99 283.12 317.37 281.38 311.72" style="fill: none; stroke: #000; stroke-miterlimit: 10;"/>
    <path d="M314.62,303.66s27.15-41.49,18.96-85.98c-8.06-43.79-7.3-66.16,6.2-89.72,8.1-14.13,49.19-45.62,61.36-17.86,6.73,15.37-20.49,18.5-34.13,46.67-2.78,5.76-4.27,35.45,1.62,63.86,8.74,42.16.39,64.59-5.56,86.47-5.29,19.46-21.41,56.78-49.05,66.39" style="fill: none; stroke: #000; stroke-miterlimit: 10;"/>
    <path d="M243.61,234.41s13.81,2.1,14.97-9.15c0,0-.87-2.17-4.6-1.02" style="fill: none; stroke: #000; stroke-miterlimit: 10;"/>
    <polygon points="200.27 250.74 199.11 254.32 202.19 257.2 204.11 253.97 200.27 250.74" style="fill: none; stroke: #000; stroke-miterlimit: 10;"/>
    <polygon points="205.39 248.75 204.94 252.4 208.01 255.15 208.71 252.21 205.39 248.75" style="fill: none; stroke: #000; stroke-miterlimit: 10;"/>
    <line x1="208.71" y1="247.54" x2="211.53" y2="254.64" style="fill: none; stroke: #000; stroke-miterlimit: 10;"/>
    <polyline points="212.04 246.58 210.24 251.39 215.11 251.95" style="fill: none; stroke: #000; stroke-miterlimit: 10;"/>
    <polygon points="226.43 242.73 224.85 247.54 228.58 249.63 229.86 245.45 226.43 242.73" style="fill: none; stroke: #000; stroke-miterlimit: 10;"/>
    <polyline points="233.82 239.52 229.86 240.98 232.88 248.75" style="fill: none; stroke: #000; stroke-miterlimit: 10;"/>
    <line x1="234.56" y1="242.05" x2="230.96" y2="243.82" style="fill: none; stroke: #000; stroke-miterlimit: 10;"/>
    <polygon points="190.44 267.93 194.57 280.43 199.18 273.12 192.64 272.68 197.29 267.93 190.44 267.93" style="fill: none; stroke: #000; stroke-miterlimit: 10;"/>
    <polyline points="203.14 275.59 199.59 265.73 205.58 266.61 201.99 269.96 207.87 273.04" style="fill: none; stroke: #000; stroke-miterlimit: 10;"/>
    <line x1="206.81" y1="262.47" x2="210.51" y2="273.57" style="fill: none; stroke: #000; stroke-miterlimit: 10;"/>
    <polyline points="209.63 263.18 211.92 270.66 215.31 269.69" style="fill: none; stroke: #000; stroke-miterlimit: 10;"/>
    <polyline points="213.59 260.62 217.2 270.66 221.07 269.08" style="fill: none; stroke: #000; stroke-miterlimit: 10;"/>
    <line x1="219.49" y1="259.65" x2="222.31" y2="267.4" style="fill: none; stroke: #000; stroke-miterlimit: 10;"/>
    <line x1="205.58" y1="259.25" x2="205.58" y2="260.18" style="fill: none; stroke: #000; stroke-miterlimit: 10;"/>
    <line x1="218.32" y1="256.42" x2="218.32" y2="257.91" style="fill: none; stroke: #000; stroke-miterlimit: 10;"/>
    <polyline points="225.03 267.93 224.29 255.91 229.88 265.2" style="fill: none; stroke: #000; stroke-miterlimit: 10;"/>
    <line x1="224.87" y1="263.01" x2="227.72" y2="262.03" style="fill: none; stroke: #000; stroke-miterlimit: 10;"/>
    <polyline points="231.82 264.4 228.41 255.23 235.68 262.76 232.81 253.74" style="fill: none; stroke: #000; stroke-miterlimit: 10;"/>
    <polyline points="238.38 253.22 236.31 252.66 236.67 258.47 240.53 261.92 241.34 259.65" style="fill: none; stroke: #000; stroke-miterlimit: 10;"/>
    <polyline points="244.3 250.02 239.72 251.45 243.05 260.18 247 258.47" style="fill: none; stroke: #000; stroke-miterlimit: 10;"/>
    <line x1="243.61" y1="254.64" x2="241.34" y2="255.23" style="fill: none; stroke: #000; stroke-miterlimit: 10;"/>
    <polygon points="190.38 253.97 193.92 262.26 197.39 257.2 192.72 257.2 194.94 254.64 190.38 253.97" style="fill: none; stroke: #000; stroke-miterlimit: 10;"/>
  </g>
</svg>