<svg xmlns="http://www.w3.org/2000/svg" version="1.1" xmlns:xlink="http://www.w3.org/1999/xlink" width="1000" height="1000"><g clip-path="url(#SvgjsClipPath1297)"><rect width="1000" height="1000" fill="#d3b993"></rect><g transform="matrix(2.323188742491122,0,0,2.323188742491122,238.4554113703495,150.00000000000003)"><svg xmlns="http://www.w3.org/2000/svg" version="1.1" xmlns:xlink="http://www.w3.org/1999/xlink" width="225.16" height="301.31"><svg id="Layer_1" data-name="Layer 1" xmlns="http://www.w3.org/2000/svg" width="225.16" height="301.31" viewBox="0 0 225.16 301.31">
  <path d="M22.32,147.61c44.92-48.61,121.83-37.53,152.82,4.92,24.59,33.69,21.3,95.37-14.38,126.13-38.64,33.31-114.86,27.75-142.13-8-27.69-36.3-21.41-95.89,3.69-123.06Z" style="stroke: #000; stroke-miterlimit: 10;"></path>
  <path d="M69.62,134.89c-36.25,25.72-42.11,73.99-45.27,65.56-22.11-59.02,56.4-73.46,45.27-65.56Z" style="fill: #fff; stroke: #000; stroke-miterlimit: 10;"></path>
  <path d="M107.18,116.2l5.58-17.97s22.49-6.67,32.34,8.99l-3.27,18.5-34.65-9.52Z" style="stroke: #000; stroke-miterlimit: 10;"></path>
  <path d="M113.97,100.96s6.55,9.77,26,8.58c0,0-13.98,2.01-17.26.79-3.87-1.44-8.73-9.38-8.73-9.38Z" style="fill: #fff;"></path>
  <path d="M126.18,9.13S164.49,60.34,194.52.27c0,0-36.58,56.6,30.61,51.79,0,0-52.56-1.54-46.4,53.52,0,0-9.14-59.09-64.68-44.17,0,0,45.63-6.27,12.13-52.28Z" style="fill: gold; stroke: #000; stroke-miterlimit: 10;"></path>
  <path d="M149.47,36.14s18.16,11.33,24.52-.6c0,0-4.93,17.38,12.38,18.99,0,0-20.79-2.64-12.26,17.79,0,0-5-21.42-28.1-19.4,0,0,14.63-4.54,3.46-16.78Z" style="fill: #ff001f; stroke: #000; stroke-miterlimit: 10;"></path>
  <path d="M63.86,199.44c8.29-22.26,48.47-32.13,64.27,1.02,4.9,10.29,2.37,31.29-13.49,34.48,0,0,.69,9.57-2.08,10.4-3.22.97-5.76-2.38-5.76-2.38,0,0-2.12,3.78-3.77,3.66-2.29-.17-4.93-3.27-4.93-3.27,0,0-2.61,4.36-5.46,4.28-2.27-.07-3.85-4.08-3.85-4.08,0,0-3.09,4.28-5.65,4.08-2.28-.18-3.67-4.08-3.67-4.08,0,0-3.83,3.16-6.14,1.88-2.83-1.56-.3-10.31-.3-10.31,0,0-18.65-10.24-9.16-35.7Z" style="fill: #fff; stroke: #000; stroke-miterlimit: 10;"></path>
  <path d="M73.02,211.9c1.89-2.33,7.34-5.88,12.47-2.05,8.06,6.02,2.21,15.52-.82,16.45,0,0-8.65,2.32-12.1-2.08s-1.42-10.01.45-12.32Z" style="stroke: #000; stroke-miterlimit: 10;"></path>
  <path d="M99.68,211.04c1.89-2.33,7.33-6.14,12.46-2.31,8.06,6.02,2.21,15.52-.82,16.45,0,0-8.65,2.32-12.1-2.08s-1.42-9.76.46-12.07Z" style="stroke: #000; stroke-miterlimit: 10;"></path>
  <path d="M87.53,235.16c.58-3.28,2.69-6.57,5.96-7.95,1.31-.55,4.38,4,5.28,6.83,1.27,3.97-7.72-1.43-5.51-.6.97-1.43-6.42,5.6-5.73,1.73Z" style="stroke: #000; stroke-miterlimit: 10;"></path>
  <path d="M124.02,99.62s4.11-34.85,36.72-51.46l.7,3.16,3.11.4.86,3.11,4.75.52s-29,21.79-31.11,47.85l-15.03-3.58Z" style="fill: #ffe9ca; stroke: #000; stroke-miterlimit: 10;"></path>
  <path d="M154.53,51.33s-.16,6.35,6.3,12.36" style="fill: #ffe9ca; stroke: #000; stroke-miterlimit: 10;"></path>
  <path d="M125.86,90.47s3.65,10.12,6.3,12.36" style="fill: #ffe9ca; stroke: #000; stroke-miterlimit: 10;"></path>
  <path d="M147.94,56.66s.44,7.02,6.3,13.61" style="fill: #ffe9ca; stroke: #000; stroke-miterlimit: 10;"></path>
  <path d="M141.85,62.55s-.56,8.61,6.54,16.06" style="fill: #ffe9ca; stroke: #000; stroke-miterlimit: 10;"></path>
  <path d="M135.41,70.81s.17,9.75,8.15,16.01" style="fill: #ffe9ca; stroke: #000; stroke-miterlimit: 10;"></path>
  <path d="M129.95,80.57s.77,9.2,10.03,17.67" style="fill: #ffe9ca; stroke: #000; stroke-miterlimit: 10;"></path>
</svg></svg></g></g><defs><clipPath id="SvgjsClipPath1297"><rect width="1000" height="1000" x="0" y="0" rx="0" ry="0"></rect></clipPath></defs></svg>